# MagicaVoxel @ Ephtracy

# group
o 

# material
mtllib arm-right-lower.mtl
usemtl palette

# normals
vn -1 0 0
vn 1 0 0
vn 0 0 1
vn 0 0 -1
vn 0 -1 0
vn 0 1 0

# texcoords
vt 0.00585938 0.5
vt 0.0136719 0.5

# verts
v -0.9 -0.1 0.2
v -0.9 -0.1 0.1
v -0.9 -0.1 -0.1
v -0.9 0 0.2
v -0.9 0 0.1
v -0.9 0.1 0.2
v -0.9 0.1 0.1
v -0.9 0.2 0.2
v -0.9 0.2 0.1
v -0.9 0.2 -0.1
v 0 -0.1 0.2
v 0 -0.1 0.1
v 0 -0.1 -0.1
v 0 0 0.2
v 0 0 0.1
v 0 0.1 0.2
v 0 0.1 0.1
v 0 0.2 0.2
v 0 0.2 0.1
v 0 0.2 -0.1
v -0.9 -0.1 0.2
v -0.9 0 0.2
v -0.9 0.1 0.2
v -0.9 0.2 0.2
v 0 -0.1 0.2
v 0 0 0.2
v 0 0.1 0.2
v 0 0.2 0.2
v -0.9 -0.1 -0.1
v -0.9 0.2 -0.1
v 0 -0.1 -0.1
v 0 0.2 -0.1
v -0.9 -0.1 0.2
v 0 -0.1 0.2
v -0.9 -0.1 0.1
v 0 -0.1 0.1
v -0.9 -0.1 -0.1
v 0 -0.1 -0.1
v -0.9 0.2 0.2
v 0 0.2 0.2
v -0.9 0.2 0.1
v 0 0.2 0.1
v -0.9 0.2 -0.1
v 0 0.2 -0.1

# faces
f 4/1/1 2/1/1 1/1/1
f 5/2/1 3/2/1 2/2/1
f 5/1/1 2/1/1 4/1/1
f 6/2/1 5/2/1 4/2/1
f 7/2/1 3/2/1 5/2/1
f 7/2/1 5/2/1 6/2/1
f 8/1/1 7/1/1 6/1/1
f 9/2/1 3/2/1 7/2/1
f 9/1/1 7/1/1 8/1/1
f 10/2/1 3/2/1 9/2/1
f 11/1/2 12/1/2 14/1/2
f 12/2/2 13/2/2 15/2/2
f 14/1/2 12/1/2 15/1/2
f 14/2/2 15/2/2 16/2/2
f 15/2/2 13/2/2 17/2/2
f 16/2/2 15/2/2 17/2/2
f 16/1/2 17/1/2 18/1/2
f 17/2/2 13/2/2 19/2/2
f 18/1/2 17/1/2 19/1/2
f 19/2/2 13/2/2 20/2/2
f 25/1/3 22/1/3 21/1/3
f 26/2/3 23/2/3 22/2/3
f 26/1/3 22/1/3 25/1/3
f 27/1/3 24/1/3 23/1/3
f 27/2/3 23/2/3 26/2/3
f 28/1/3 24/1/3 27/1/3
f 29/2/4 30/2/4 31/2/4
f 31/2/4 30/2/4 32/2/4
f 35/1/5 34/1/5 33/1/5
f 36/1/5 34/1/5 35/1/5
f 37/2/5 36/2/5 35/2/5
f 38/2/5 36/2/5 37/2/5
f 39/1/6 40/1/6 41/1/6
f 41/1/6 40/1/6 42/1/6
f 41/2/6 42/2/6 43/2/6
f 43/2/6 42/2/6 44/2/6
