# MagicaVoxel @ Ephtracy

# group
o 

# material
mtllib leg-left-upper.mtl
usemtl palette

# normals
vn 1 0 0
vn -1 0 0
vn 0 0 1
vn 0 0 -1
vn 0 -1 0
vn 0 1 0

# texcoords
vt 0.00585938 0.5
vt 0.0136719 0.5

# verts
v 0.2 -1.2 0.2
v 0.2 -1.2 0.1
v 0.2 -1.2 0
v 0.2 -1.2 -0.1
v 0.2 -1.2 -0.2
v 0.2 -0.7 0.3
v 0.2 -0.7 0.2
v 0.2 0 0.3
v 0.2 0 0.1
v 0.2 0 0
v 0.2 0 -0.1
v 0.2 0 -0.2
v -0.1 -1.2 0.2
v -0.1 -1.2 -0.2
v -0.1 -0.7 0.2
v -0.1 -0.7 -0.2
v -0.2 -0.7 0.3
v -0.2 -0.7 -0.2
v -0.2 0 0.3
v -0.2 0 -0.2
v 0.2 -0.7 0.3
v 0.2 0 0.3
v -0.2 -0.7 0.3
v -0.2 0 0.3
v 0.2 -1.2 0.2
v 0.2 -0.7 0.2
v -0.1 -1.2 0.2
v -0.1 -0.7 0.2
v 0.2 -1.2 -0.2
v 0.2 0 -0.2
v 0.1 -1.2 -0.2
v 0.1 0 -0.2
v -0.1 -1.2 -0.2
v -0.1 -0.7 -0.2
v -0.2 -0.7 -0.2
v -0.2 0 -0.2
v 0.2 -1.2 0.2
v -0.1 -1.2 0.2
v 0.2 -1.2 0.1
v 0.1 -1.2 0.1
v 0.2 -1.2 0
v 0.1 -1.2 0
v 0.2 -1.2 -0.1
v 0.1 -1.2 -0.1
v 0.2 -1.2 -0.2
v 0.1 -1.2 -0.2
v -0.1 -1.2 -0.2
v 0.2 -0.7 0.3
v -0.2 -0.7 0.3
v 0.2 -0.7 0.2
v -0.1 -0.7 0.2
v -0.1 -0.7 -0.2
v -0.2 -0.7 -0.2
v 0.2 0 0.3
v -0.2 0 0.3
v 0.2 0 0.1
v 0.1 0 0.1
v 0.2 0 0
v 0.1 0 0
v 0.2 0 -0.1
v 0.1 0 -0.1
v 0.2 0 -0.2
v 0.1 0 -0.2
v -0.2 0 -0.2

# faces
f 1/2/1 2/2/1 7/2/1
f 6/2/1 7/2/1 8/2/1
f 2/1/1 3/1/1 9/1/1
f 8/2/1 7/2/1 9/2/1
f 7/2/1 2/2/1 9/2/1
f 3/2/1 4/2/1 10/2/1
f 9/1/1 3/1/1 10/1/1
f 4/1/1 5/1/1 11/1/1
f 10/2/1 4/2/1 11/2/1
f 11/1/1 5/1/1 12/1/1
f 15/2/2 14/2/2 13/2/2
f 16/2/2 14/2/2 15/2/2
f 19/2/2 18/2/2 17/2/2
f 20/2/2 18/2/2 19/2/2
f 21/2/3 22/2/3 23/2/3
f 23/2/3 22/2/3 24/2/3
f 25/2/3 26/2/3 27/2/3
f 27/2/3 26/2/3 28/2/3
f 31/1/4 30/1/4 29/1/4
f 32/1/4 30/1/4 31/1/4
f 33/2/4 32/2/4 31/2/4
f 34/2/4 32/2/4 33/2/4
f 35/2/4 32/2/4 34/2/4
f 36/2/4 32/2/4 35/2/4
f 37/2/5 38/2/5 39/2/5
f 39/2/5 38/2/5 40/2/5
f 39/1/5 40/1/5 41/1/5
f 40/2/5 38/2/5 42/2/5
f 41/1/5 40/1/5 42/1/5
f 41/2/5 42/2/5 43/2/5
f 42/2/5 38/2/5 44/2/5
f 43/2/5 42/2/5 44/2/5
f 43/1/5 44/1/5 45/1/5
f 44/2/5 38/2/5 46/2/5
f 45/1/5 44/1/5 46/1/5
f 46/2/5 38/2/5 47/2/5
f 48/2/5 49/2/5 50/2/5
f 50/2/5 49/2/5 51/2/5
f 51/2/5 49/2/5 52/2/5
f 52/2/5 49/2/5 53/2/5
f 56/2/6 55/2/6 54/2/6
f 57/2/6 55/2/6 56/2/6
f 58/1/6 57/1/6 56/1/6
f 59/2/6 55/2/6 57/2/6
f 59/1/6 57/1/6 58/1/6
f 60/2/6 59/2/6 58/2/6
f 61/2/6 55/2/6 59/2/6
f 61/2/6 59/2/6 60/2/6
f 62/1/6 61/1/6 60/1/6
f 63/2/6 55/2/6 61/2/6
f 63/1/6 61/1/6 62/1/6
f 64/2/6 55/2/6 63/2/6
