# MagicaVoxel @ Ephtracy

# group
o 

# material
mtllib arm-right-upper.mtl
usemtl palette

# normals
vn 0 0 1
vn 0 0 -1
vn 0 1 0
vn 0 -1 0
vn 1 0 0
vn -1 0 0

# texcoords
vt 0.00585938 0.5
vt 0.0136719 0.5
vt 0.0175781 0.5
vt 0.0253906 0.5

# verts
v 0.1 0.2 0.3
v 0.1 -0.1 0.3
v 0 0.2 0.3
v 0 -0.1 0.3
v -0.1 0.2 0.3
v -0.1 0.1 0.3
v -0.1 0 0.3
v -0.1 -0.1 0.3
v -0.6 0.2 0.3
v -0.6 0.1 0.3
v -0.6 0 0.3
v -0.6 -0.1 0.3
v -0.6 0.2 0.2
v -0.6 0.1 0.2
v -0.6 0 0.2
v -0.6 -0.1 0.2
v -0.9 0.2 0.2
v -0.9 0.1 0.2
v -0.9 0 0.2
v -0.9 -0.1 0.2
v -1 0.2 0.2
v -1 -0.1 0.2
v 0.1 0.2 -0.1
v 0.1 0.1 -0.1
v 0.1 -0.1 -0.1
v 0 0.2 -0.1
v 0 0.1 -0.1
v -0.1 0.2 -0.1
v -0.1 0.1 -0.1
v -0.1 -0.1 -0.1
v -0.9 0.2 -0.1
v -0.9 -0.1 -0.1
v -1 0.2 -0.1
v -1 -0.1 -0.1
v 0.1 0.2 0.3
v 0 0.2 0.3
v -0.1 0.2 0.3
v -0.6 0.2 0.3
v -0.6 0.2 0.2
v -0.9 0.2 0.2
v -1 0.2 0.2
v 0.1 0.2 -0.1
v 0 0.2 -0.1
v -0.1 0.2 -0.1
v -0.9 0.2 -0.1
v -1 0.2 -0.1
v 0.1 -0.1 0.3
v 0 -0.1 0.3
v -0.1 -0.1 0.3
v -0.6 -0.1 0.3
v -0.6 -0.1 0.2
v -0.9 -0.1 0.2
v -1 -0.1 0.2
v 0.1 -0.1 0.1
v 0 -0.1 0.1
v -0.1 -0.1 0.1
v 0.1 -0.1 -0.1
v -0.1 -0.1 -0.1
v -0.9 -0.1 -0.1
v -1 -0.1 -0.1
v 0.1 0.2 0.3
v 0.1 0.2 -0.1
v 0.1 0.1 0.1
v 0.1 0.1 -0.1
v 0.1 -0.1 0.3
v 0.1 -0.1 0.1
v 0.1 -0.1 -0.1
v -0.6 0.2 0.3
v -0.6 0.2 0.2
v -0.6 0.1 0.3
v -0.6 0.1 0.2
v -0.6 0 0.3
v -0.6 0 0.2
v -0.6 -0.1 0.3
v -0.6 -0.1 0.2
v -1 0.2 0.2
v -1 0.2 -0.1
v -1 -0.1 0.2
v -1 -0.1 -0.1

# faces
f 3/2/1 2/2/1 1/2/1
f 4/2/1 2/2/1 3/2/1
f 5/1/1 4/1/1 3/1/1
f 6/1/1 4/1/1 5/1/1
f 7/1/1 4/1/1 6/1/1
f 8/1/1 4/1/1 7/1/1
f 9/4/1 6/4/1 5/4/1
f 10/1/1 7/1/1 6/1/1
f 10/4/1 6/4/1 9/4/1
f 11/4/1 8/4/1 7/4/1
f 11/1/1 7/1/1 10/1/1
f 12/4/1 8/4/1 11/4/1
f 17/4/1 14/4/1 13/4/1
f 18/1/1 15/1/1 14/1/1
f 18/4/1 14/4/1 17/4/1
f 19/4/1 16/4/1 15/4/1
f 19/1/1 15/1/1 18/1/1
f 20/4/1 16/4/1 19/4/1
f 21/1/1 18/1/1 17/1/1
f 21/1/1 19/1/1 18/1/1
f 21/1/1 20/1/1 19/1/1
f 22/1/1 20/1/1 21/1/1
f 23/2/2 24/2/2 26/2/2
f 24/3/2 25/3/2 27/3/2
f 26/2/2 24/2/2 27/2/2
f 26/1/2 27/1/2 28/1/2
f 27/3/2 25/3/2 29/3/2
f 28/1/2 27/1/2 29/1/2
f 29/3/2 25/3/2 30/3/2
f 28/4/2 29/4/2 31/4/2
f 29/4/2 30/4/2 31/4/2
f 31/4/2 30/4/2 32/4/2
f 31/1/2 32/1/2 33/1/2
f 33/1/2 32/1/2 34/1/2
f 39/4/3 38/4/3 37/4/3
f 42/2/3 36/2/3 35/2/3
f 43/1/3 37/1/3 36/1/3
f 43/2/3 36/2/3 42/2/3
f 44/4/3 39/4/3 37/4/3
f 44/1/3 37/1/3 43/1/3
f 44/4/3 40/4/3 39/4/3
f 45/1/3 41/1/3 40/1/3
f 45/4/3 40/4/3 44/4/3
f 46/1/3 41/1/3 45/1/3
f 49/4/4 50/4/4 51/4/4
f 47/2/4 48/2/4 54/2/4
f 48/1/4 49/1/4 55/1/4
f 54/2/4 48/2/4 55/2/4
f 49/4/4 51/4/4 56/4/4
f 55/1/4 49/1/4 56/1/4
f 51/4/4 52/4/4 56/4/4
f 54/3/4 55/3/4 57/3/4
f 55/3/4 56/3/4 57/3/4
f 56/4/4 52/4/4 58/4/4
f 57/3/4 56/3/4 58/3/4
f 52/1/4 53/1/4 59/1/4
f 58/4/4 52/4/4 59/4/4
f 59/1/4 53/1/4 60/1/4
f 63/2/5 62/2/5 61/2/5
f 64/2/5 62/2/5 63/2/5
f 65/2/5 63/2/5 61/2/5
f 66/3/5 64/3/5 63/3/5
f 66/2/5 63/2/5 65/2/5
f 67/3/5 64/3/5 66/3/5
f 68/4/6 69/4/6 70/4/6
f 70/4/6 69/4/6 71/4/6
f 70/1/6 71/1/6 72/1/6
f 72/1/6 71/1/6 73/1/6
f 72/4/6 73/4/6 74/4/6
f 74/4/6 73/4/6 75/4/6
f 76/1/6 77/1/6 78/1/6
f 78/1/6 77/1/6 79/1/6
