# MagicaVoxel @ Ephtracy

# group
o 

# material
mtllib arm-left-lower.mtl
usemtl palette

# normals
vn 0 0 1
vn 0 0 -1
vn 0 -1 0
vn 0 1 0
vn -1 0 0
vn 1 0 0

# texcoords
vt 0.00585938 0.5
vt 0.0175781 0.5
vt 0.0253906 0.5
vt 0.0449219 0.5

# verts
v 0 -0.1 0.2
v 0 0.2 0.2
v 0.1 -0.1 0.2
v 0.1 0 0.2
v 0.1 0.1 0.2
v 0.1 0.2 0.2
v 0.8 -0.1 0.2
v 0.8 0 0.2
v 0.8 0.1 0.2
v 0.8 0.2 0.2
v 0.9 -0.1 0.2
v 0.9 0.2 0.2
v 0 -0.1 -0.1
v 0 0.1 -0.1
v 0 0.2 -0.1
v 0.1 -0.1 -0.1
v 0.1 0.1 -0.1
v 0.1 0.2 -0.1
v 0.8 -0.1 -0.1
v 0.8 0.2 -0.1
v 0.9 -0.1 -0.1
v 0.9 0.2 -0.1
v 0 -0.1 0.2
v 0.1 -0.1 0.2
v 0.8 -0.1 0.2
v 0.9 -0.1 0.2
v 0 -0.1 0.1
v 0.1 -0.1 0.1
v 0 -0.1 -0.1
v 0.1 -0.1 -0.1
v 0.8 -0.1 -0.1
v 0.9 -0.1 -0.1
v 0 0.2 0.2
v 0.1 0.2 0.2
v 0.8 0.2 0.2
v 0.9 0.2 0.2
v 0 0.2 -0.1
v 0.1 0.2 -0.1
v 0.8 0.2 -0.1
v 0.9 0.2 -0.1
v 0 -0.1 0.2
v 0 -0.1 0.1
v 0 -0.1 -0.1
v 0 0.1 0.1
v 0 0.1 -0.1
v 0 0.2 0.2
v 0 0.2 -0.1
v 0.9 -0.1 0.2
v 0.9 -0.1 -0.1
v 0.9 0.2 0.2
v 0.9 0.2 -0.1

# faces
f 3/1/1 2/1/1 1/1/1
f 4/1/1 2/1/1 3/1/1
f 5/1/1 2/1/1 4/1/1
f 6/1/1 2/1/1 5/1/1
f 7/3/1 4/3/1 3/3/1
f 8/1/1 5/1/1 4/1/1
f 8/3/1 4/3/1 7/3/1
f 9/3/1 6/3/1 5/3/1
f 9/1/1 5/1/1 8/1/1
f 10/3/1 6/3/1 9/3/1
f 11/4/1 8/4/1 7/4/1
f 11/4/1 9/4/1 8/4/1
f 11/4/1 10/4/1 9/4/1
f 12/4/1 10/4/1 11/4/1
f 13/2/2 14/2/2 16/2/2
f 14/1/2 15/1/2 17/1/2
f 16/2/2 14/2/2 17/2/2
f 17/1/2 15/1/2 18/1/2
f 16/3/2 17/3/2 19/3/2
f 17/3/2 18/3/2 19/3/2
f 19/3/2 18/3/2 20/3/2
f 19/4/2 20/4/2 21/4/2
f 21/4/2 20/4/2 22/4/2
f 27/1/3 24/1/3 23/1/3
f 28/3/3 25/3/3 24/3/3
f 28/1/3 24/1/3 27/1/3
f 29/2/3 28/2/3 27/2/3
f 30/3/3 25/3/3 28/3/3
f 30/2/3 28/2/3 29/2/3
f 31/4/3 26/4/3 25/4/3
f 31/3/3 25/3/3 30/3/3
f 32/4/3 26/4/3 31/4/3
f 33/1/4 34/1/4 37/1/4
f 34/3/4 35/3/4 38/3/4
f 37/1/4 34/1/4 38/1/4
f 35/4/4 36/4/4 39/4/4
f 38/3/4 35/3/4 39/3/4
f 39/4/4 36/4/4 40/4/4
f 44/1/5 42/1/5 41/1/5
f 44/2/5 43/2/5 42/2/5
f 45/2/5 43/2/5 44/2/5
f 46/1/5 44/1/5 41/1/5
f 46/1/5 45/1/5 44/1/5
f 47/1/5 45/1/5 46/1/5
f 48/4/6 49/4/6 50/4/6
f 50/4/6 49/4/6 51/4/6
