# MagicaVoxel @ Ephtracy

# group
o 

# material
mtllib chest.mtl
usemtl palette

# normals
vn -1 0 0
vn 1 0 0
vn 0 0 1
vn 0 0 -1
vn 0 -1 0
vn 0 1 0

# texcoords
vt 0.00585938 0.5
vt 0.0175781 0.5
vt 0.0253906 0.5

# verts
v -0.6 0.3 0.3
v -0.6 0.3 -0.1
v -0.6 0.4 0.4
v -0.6 0.4 0.3
v -0.6 0.4 -0.1
v -0.6 0.4 -0.2
v -0.6 0.7 0.4
v -0.6 0.7 0.3
v -0.6 0.7 0.1
v -0.6 0.7 -0.1
v -0.6 0.9 0.4
v -0.6 0.9 0.3
v -0.6 0.9 0.1
v -0.6 0.9 -0.1
v -0.6 1 0.4
v -0.6 1 -0.2
v -0.5 0.1 0.3
v -0.5 0.1 -0.2
v -0.5 0.3 0.4
v -0.5 0.3 0.3
v -0.5 0.3 -0.1
v -0.5 0.4 0.4
v -0.5 0.4 0.3
v -0.5 0.4 -0.1
v -0.5 0.4 -0.2
v -0.4 -0.1 0.3
v -0.4 -0.1 0.1
v -0.4 -0.1 -0.1
v -0.4 -0.1 -0.2
v -0.4 0 0.3
v -0.4 0 0.1
v -0.4 0 -0.1
v -0.4 0 -0.2
v -0.4 0.1 0.3
v -0.4 0.1 0.1
v -0.4 0.1 -0.1
v -0.4 0.1 -0.2
v -0.2 1 0.2
v -0.2 1 -0.2
v -0.2 1.1 0.2
v -0.2 1.1 -0.2
v 0.2 1 0.2
v 0.2 1 -0.2
v 0.2 1.1 0.2
v 0.2 1.1 -0.2
v 0.4 -0.1 0.3
v 0.4 -0.1 0.1
v 0.4 -0.1 -0.1
v 0.4 -0.1 -0.2
v 0.4 0 0.3
v 0.4 0 0.1
v 0.4 0 -0.1
v 0.4 0 -0.2
v 0.4 0.1 0.3
v 0.4 0.1 0.1
v 0.4 0.1 -0.1
v 0.4 0.1 -0.2
v 0.5 0.1 0.3
v 0.5 0.1 -0.2
v 0.5 0.3 0.4
v 0.5 0.3 0.3
v 0.5 0.3 -0.1
v 0.5 0.4 0.4
v 0.5 0.4 0.3
v 0.5 0.4 -0.1
v 0.5 0.4 -0.2
v 0.6 0.3 0.3
v 0.6 0.3 -0.1
v 0.6 0.4 0.4
v 0.6 0.4 0.3
v 0.6 0.4 -0.1
v 0.6 0.4 -0.2
v 0.6 0.7 0.4
v 0.6 0.7 0.3
v 0.6 0.7 0.1
v 0.6 0.7 -0.1
v 0.6 0.9 0.4
v 0.6 0.9 0.3
v 0.6 0.9 0.1
v 0.6 0.9 -0.1
v 0.6 1 0.4
v 0.6 1 -0.2
v -0.6 0.4 0.4
v -0.6 0.7 0.4
v -0.6 0.9 0.4
v -0.6 1 0.4
v -0.5 0.3 0.4
v -0.5 0.4 0.4
v -0.1 0.3 0.4
v -0.1 0.7 0.4
v -0.1 0.9 0.4
v -0.1 1 0.4
v 0.1 0.3 0.4
v 0.1 0.7 0.4
v 0.1 0.9 0.4
v 0.1 1 0.4
v 0.5 0.3 0.4
v 0.5 0.4 0.4
v 0.6 0.4 0.4
v 0.6 0.7 0.4
v 0.6 0.9 0.4
v 0.6 1 0.4
v -0.6 0.3 0.3
v -0.6 0.4 0.3
v -0.5 0.1 0.3
v -0.5 0.3 0.3
v -0.5 0.4 0.3
v -0.4 -0.1 0.3
v -0.4 0 0.3
v -0.4 0.1 0.3
v -0.1 -0.1 0.3
v -0.1 0 0.3
v -0.1 0.1 0.3
v -0.1 0.3 0.3
v 0.1 -0.1 0.3
v 0.1 0 0.3
v 0.1 0.1 0.3
v 0.1 0.3 0.3
v 0.4 -0.1 0.3
v 0.4 0 0.3
v 0.4 0.1 0.3
v 0.5 0.1 0.3
v 0.5 0.3 0.3
v 0.5 0.4 0.3
v 0.6 0.3 0.3
v 0.6 0.4 0.3
v -0.2 1 0.2
v -0.2 1.1 0.2
v 0.2 1 0.2
v 0.2 1.1 0.2
v -0.6 0.3 -0.1
v -0.6 0.4 -0.1
v -0.5 0.3 -0.1
v -0.5 0.4 -0.1
v 0.5 0.3 -0.1
v 0.5 0.4 -0.1
v 0.6 0.3 -0.1
v 0.6 0.4 -0.1
v -0.6 0.4 -0.2
v -0.6 1 -0.2
v -0.5 0.1 -0.2
v -0.5 0.4 -0.2
v -0.4 -0.1 -0.2
v -0.4 0 -0.2
v -0.4 0.1 -0.2
v -0.2 1 -0.2
v -0.2 1.1 -0.2
v -0.1 -0.1 -0.2
v -0.1 0 -0.2
v -0.1 0.1 -0.2
v 0.1 -0.1 -0.2
v 0.1 0 -0.2
v 0.1 0.1 -0.2
v 0.2 1 -0.2
v 0.2 1.1 -0.2
v 0.4 -0.1 -0.2
v 0.4 0 -0.2
v 0.4 0.1 -0.2
v 0.5 0.1 -0.2
v 0.5 0.4 -0.2
v 0.6 0.4 -0.2
v 0.6 1 -0.2
v -0.4 -0.1 0.3
v -0.1 -0.1 0.3
v 0.1 -0.1 0.3
v 0.4 -0.1 0.3
v -0.3 -0.1 0.2
v -0.1 -0.1 0.2
v 0.1 -0.1 0.2
v 0.3 -0.1 0.2
v -0.4 -0.1 0.1
v -0.3 -0.1 0.1
v -0.1 -0.1 0.1
v 0.1 -0.1 0.1
v 0.3 -0.1 0.1
v 0.4 -0.1 0.1
v -0.4 -0.1 -0.1
v -0.1 -0.1 -0.1
v 0.1 -0.1 -0.1
v 0.4 -0.1 -0.1
v -0.4 -0.1 -0.2
v -0.1 -0.1 -0.2
v 0.1 -0.1 -0.2
v 0.4 -0.1 -0.2
v -0.5 0.1 0.3
v -0.4 0.1 0.3
v 0.4 0.1 0.3
v 0.5 0.1 0.3
v -0.4 0.1 0.1
v 0.4 0.1 0.1
v -0.4 0.1 -0.1
v 0.4 0.1 -0.1
v -0.5 0.1 -0.2
v -0.4 0.1 -0.2
v 0.4 0.1 -0.2
v 0.5 0.1 -0.2
v -0.5 0.3 0.4
v -0.1 0.3 0.4
v 0.1 0.3 0.4
v 0.5 0.3 0.4
v -0.6 0.3 0.3
v -0.5 0.3 0.3
v -0.1 0.3 0.3
v 0.1 0.3 0.3
v 0.5 0.3 0.3
v 0.6 0.3 0.3
v -0.6 0.3 -0.1
v -0.5 0.3 -0.1
v 0.5 0.3 -0.1
v 0.6 0.3 -0.1
v -0.6 0.4 0.4
v -0.5 0.4 0.4
v 0.5 0.4 0.4
v 0.6 0.4 0.4
v -0.6 0.4 0.3
v -0.5 0.4 0.3
v 0.5 0.4 0.3
v 0.6 0.4 0.3
v -0.6 0.4 -0.1
v -0.5 0.4 -0.1
v 0.5 0.4 -0.1
v 0.6 0.4 -0.1
v -0.6 0.4 -0.2
v -0.5 0.4 -0.2
v 0.5 0.4 -0.2
v 0.6 0.4 -0.2
v -0.6 1 0.4
v -0.1 1 0.4
v 0.1 1 0.4
v 0.6 1 0.4
v -0.1 1 0.3
v 0.1 1 0.3
v -0.2 1 0.2
v 0.2 1 0.2
v -0.6 1 -0.2
v -0.2 1 -0.2
v 0.2 1 -0.2
v 0.6 1 -0.2
v -0.2 1.1 0.2
v 0.2 1.1 0.2
v -0.1 1.1 0.1
v 0.1 1.1 0.1
v -0.1 1.1 -0.1
v 0.1 1.1 -0.1
v -0.2 1.1 -0.2
v 0.2 1.1 -0.2

# faces
f 4/3/1 2/3/1 1/3/1
f 5/3/1 2/3/1 4/3/1
f 7/3/1 4/3/1 3/3/1
f 7/3/1 6/3/1 5/3/1
f 7/3/1 5/3/1 4/3/1
f 8/3/1 6/3/1 7/3/1
f 9/3/1 6/3/1 8/3/1
f 10/3/1 6/3/1 9/3/1
f 11/1/1 8/1/1 7/1/1
f 12/3/1 9/3/1 8/3/1
f 12/1/1 8/1/1 11/1/1
f 13/2/1 10/2/1 9/2/1
f 13/3/1 9/3/1 12/3/1
f 14/3/1 6/3/1 10/3/1
f 14/2/1 10/2/1 13/2/1
f 15/3/1 13/3/1 12/3/1
f 15/3/1 12/3/1 11/3/1
f 15/3/1 14/3/1 13/3/1
f 16/3/1 6/3/1 14/3/1
f 16/3/1 14/3/1 15/3/1
f 20/3/1 18/3/1 17/3/1
f 21/3/1 18/3/1 20/3/1
f 22/3/1 20/3/1 19/3/1
f 23/3/1 20/3/1 22/3/1
f 24/3/1 18/3/1 21/3/1
f 25/3/1 18/3/1 24/3/1
f 30/1/1 27/1/1 26/1/1
f 31/2/1 28/2/1 27/2/1
f 31/1/1 27/1/1 30/1/1
f 32/1/1 29/1/1 28/1/1
f 32/2/1 28/2/1 31/2/1
f 33/1/1 29/1/1 32/1/1
f 34/3/1 31/3/1 30/3/1
f 35/2/1 32/2/1 31/2/1
f 35/3/1 31/3/1 34/3/1
f 36/3/1 33/3/1 32/3/1
f 36/2/1 32/2/1 35/2/1
f 37/3/1 33/3/1 36/3/1
f 40/3/1 39/3/1 38/3/1
f 41/3/1 39/3/1 40/3/1
f 42/3/2 43/3/2 44/3/2
f 44/3/2 43/3/2 45/3/2
f 46/1/2 47/1/2 50/1/2
f 47/2/2 48/2/2 51/2/2
f 50/1/2 47/1/2 51/1/2
f 48/1/2 49/1/2 52/1/2
f 51/2/2 48/2/2 52/2/2
f 52/1/2 49/1/2 53/1/2
f 50/3/2 51/3/2 54/3/2
f 51/2/2 52/2/2 55/2/2
f 54/3/2 51/3/2 55/3/2
f 52/3/2 53/3/2 56/3/2
f 55/2/2 52/2/2 56/2/2
f 56/3/2 53/3/2 57/3/2
f 58/3/2 59/3/2 61/3/2
f 61/3/2 59/3/2 62/3/2
f 60/3/2 61/3/2 63/3/2
f 63/3/2 61/3/2 64/3/2
f 62/3/2 59/3/2 65/3/2
f 65/3/2 59/3/2 66/3/2
f 67/3/2 68/3/2 70/3/2
f 70/3/2 68/3/2 71/3/2
f 69/3/2 70/3/2 73/3/2
f 71/3/2 72/3/2 73/3/2
f 70/3/2 71/3/2 73/3/2
f 73/3/2 72/3/2 74/3/2
f 74/3/2 72/3/2 75/3/2
f 75/3/2 72/3/2 76/3/2
f 73/1/2 74/1/2 77/1/2
f 74/3/2 75/3/2 78/3/2
f 77/1/2 74/1/2 78/1/2
f 75/2/2 76/2/2 79/2/2
f 78/3/2 75/3/2 79/3/2
f 76/3/2 72/3/2 80/3/2
f 79/2/2 76/2/2 80/2/2
f 78/3/2 79/3/2 81/3/2
f 77/3/2 78/3/2 81/3/2
f 79/3/2 80/3/2 81/3/2
f 80/3/2 72/3/2 82/3/2
f 81/3/2 80/3/2 82/3/2
f 88/3/3 84/3/3 83/3/3
f 89/3/3 88/3/3 87/3/3
f 90/1/3 85/1/3 84/1/3
f 90/3/3 88/3/3 89/3/3
f 90/3/3 84/3/3 88/3/3
f 91/3/3 86/3/3 85/3/3
f 91/1/3 85/1/3 90/1/3
f 92/3/3 86/3/3 91/3/3
f 93/1/3 90/1/3 89/1/3
f 93/1/3 91/1/3 90/1/3
f 93/1/3 92/1/3 91/1/3
f 94/1/3 92/1/3 93/1/3
f 95/1/3 92/1/3 94/1/3
f 96/1/3 92/1/3 95/1/3
f 97/3/3 94/3/3 93/3/3
f 98/3/3 94/3/3 97/3/3
f 99/3/3 94/3/3 98/3/3
f 100/1/3 95/1/3 94/1/3
f 100/3/3 94/3/3 99/3/3
f 101/3/3 96/3/3 95/3/3
f 101/1/3 95/1/3 100/1/3
f 102/3/3 96/3/3 101/3/3
f 106/3/3 104/3/3 103/3/3
f 107/3/3 104/3/3 106/3/3
f 110/3/3 106/3/3 105/3/3
f 111/1/3 109/1/3 108/1/3
f 112/3/3 110/3/3 109/3/3
f 112/1/3 109/1/3 111/1/3
f 113/3/3 106/3/3 110/3/3
f 113/3/3 110/3/3 112/3/3
f 114/3/3 106/3/3 113/3/3
f 115/2/3 112/2/3 111/2/3
f 115/2/3 113/2/3 112/2/3
f 116/2/3 113/2/3 115/2/3
f 117/1/3 114/1/3 113/1/3
f 117/2/3 113/2/3 116/2/3
f 118/1/3 114/1/3 117/1/3
f 119/1/3 116/1/3 115/1/3
f 120/3/3 117/3/3 116/3/3
f 120/1/3 116/1/3 119/1/3
f 120/3/3 118/3/3 117/3/3
f 121/3/3 118/3/3 120/3/3
f 122/3/3 118/3/3 121/3/3
f 123/3/3 118/3/3 122/3/3
f 125/3/3 124/3/3 123/3/3
f 126/3/3 124/3/3 125/3/3
f 129/3/3 128/3/3 127/3/3
f 130/3/3 128/3/3 129/3/3
f 131/3/4 132/3/4 133/3/4
f 133/3/4 132/3/4 134/3/4
f 135/3/4 136/3/4 137/3/4
f 137/3/4 136/3/4 138/3/4
f 139/3/4 140/3/4 142/3/4
f 141/3/4 142/3/4 145/3/4
f 142/3/4 140/3/4 146/3/4
f 144/3/4 145/3/4 146/3/4
f 145/3/4 142/3/4 146/3/4
f 143/1/4 144/1/4 148/1/4
f 146/3/4 147/3/4 149/3/4
f 148/1/4 144/1/4 149/1/4
f 144/3/4 146/3/4 149/3/4
f 149/3/4 147/3/4 150/3/4
f 148/2/4 149/2/4 151/2/4
f 149/2/4 150/2/4 151/2/4
f 151/2/4 150/2/4 152/2/4
f 150/3/4 147/3/4 153/3/4
f 152/2/4 150/2/4 153/2/4
f 152/3/4 153/3/4 154/3/4
f 153/3/4 147/3/4 154/3/4
f 154/3/4 147/3/4 155/3/4
f 151/1/4 152/1/4 156/1/4
f 152/3/4 154/3/4 157/3/4
f 156/1/4 152/1/4 157/1/4
f 157/3/4 154/3/4 158/3/4
f 158/3/4 154/3/4 159/3/4
f 159/3/4 154/3/4 160/3/4
f 160/3/4 154/3/4 161/3/4
f 161/3/4 154/3/4 162/3/4
f 167/1/5 164/1/5 163/1/5
f 168/2/5 165/2/5 164/2/5
f 168/1/5 164/1/5 167/1/5
f 169/1/5 166/1/5 165/1/5
f 169/2/5 165/2/5 168/2/5
f 170/1/5 166/1/5 169/1/5
f 171/1/5 167/1/5 163/1/5
f 172/3/5 168/3/5 167/3/5
f 172/1/5 167/1/5 171/1/5
f 173/2/5 169/2/5 168/2/5
f 173/3/5 168/3/5 172/3/5
f 174/3/5 170/3/5 169/3/5
f 174/2/5 169/2/5 173/2/5
f 175/1/5 166/1/5 170/1/5
f 175/3/5 170/3/5 174/3/5
f 176/1/5 166/1/5 175/1/5
f 177/2/5 174/2/5 173/2/5
f 177/2/5 172/2/5 171/2/5
f 177/2/5 176/2/5 175/2/5
f 177/2/5 175/2/5 174/2/5
f 177/2/5 173/2/5 172/2/5
f 178/2/5 176/2/5 177/2/5
f 179/2/5 176/2/5 178/2/5
f 180/2/5 176/2/5 179/2/5
f 181/1/5 178/1/5 177/1/5
f 182/2/5 179/2/5 178/2/5
f 182/1/5 178/1/5 181/1/5
f 183/1/5 180/1/5 179/1/5
f 183/2/5 179/2/5 182/2/5
f 184/1/5 180/1/5 183/1/5
f 189/3/5 186/3/5 185/3/5
f 190/3/5 188/3/5 187/3/5
f 191/3/5 189/3/5 185/3/5
f 192/3/5 188/3/5 190/3/5
f 193/3/5 191/3/5 185/3/5
f 194/3/5 191/3/5 193/3/5
f 195/3/5 188/3/5 192/3/5
f 196/3/5 188/3/5 195/3/5
f 202/3/5 198/3/5 197/3/5
f 203/1/5 199/1/5 198/1/5
f 203/3/5 198/3/5 202/3/5
f 204/3/5 200/3/5 199/3/5
f 204/1/5 199/1/5 203/1/5
f 205/3/5 200/3/5 204/3/5
f 207/3/5 202/3/5 201/3/5
f 208/3/5 202/3/5 207/3/5
f 209/3/5 206/3/5 205/3/5
f 210/3/5 206/3/5 209/3/5
f 215/3/5 212/3/5 211/3/5
f 216/3/5 212/3/5 215/3/5
f 217/3/5 214/3/5 213/3/5
f 218/3/5 214/3/5 217/3/5
f 223/3/5 220/3/5 219/3/5
f 224/3/5 220/3/5 223/3/5
f 225/3/5 222/3/5 221/3/5
f 226/3/5 222/3/5 225/3/5
f 227/3/6 228/3/6 231/3/6
f 228/1/6 229/1/6 231/1/6
f 229/3/6 230/3/6 232/3/6
f 231/1/6 229/1/6 232/1/6
f 227/3/6 231/3/6 233/3/6
f 231/3/6 232/3/6 233/3/6
f 232/3/6 230/3/6 234/3/6
f 233/3/6 232/3/6 234/3/6
f 227/3/6 233/3/6 235/3/6
f 235/3/6 233/3/6 236/3/6
f 234/3/6 230/3/6 237/3/6
f 237/3/6 230/3/6 238/3/6
f 239/3/6 240/3/6 241/3/6
f 241/3/6 240/3/6 242/3/6
f 239/3/6 241/3/6 243/3/6
f 241/2/6 242/2/6 243/2/6
f 242/3/6 240/3/6 244/3/6
f 243/2/6 242/2/6 244/2/6
f 239/3/6 243/3/6 245/3/6
f 243/3/6 244/3/6 245/3/6
f 244/3/6 240/3/6 246/3/6
f 245/3/6 244/3/6 246/3/6
