# MagicaVoxel @ Ephtracy

# group
o 

# material
mtllib foot-left.mtl
usemtl palette

# normals
vn 1 0 0
vn -1 0 0
vn 0 0 1
vn 0 0 -1
vn 0 -1 0
vn 0 1 0

# texcoords
vt 0.00195313 0.5
vt 0.00585938 0.5
vt 0.0175781 0.5
vt 0.0253906 0.5
vt 0.0449219 0.5

# verts
v 0.2 -0.3 0.6
v 0.2 -0.3 0.4
v 0.2 -0.3 0.3
v 0.2 -0.3 0.2
v 0.2 -0.3 0.1
v 0.2 -0.3 5.96046e-008
v 0.2 -0.3 -0.1
v 0.2 -0.3 -0.2
v 0.2 -0.2 0.6
v 0.2 -0.2 0.4
v 0.2 -0.1 0.4
v 0.2 -0.1 0.3
v 0.2 -0.1 0.2
v 0.2 -0.1 0.1
v 0.2 -0.1 5.96046e-008
v 0.2 -0.1 -0.1
v 0.2 -0.1 -0.2
v 0.2 0 0.1
v 0.2 0 -0.2
v -0.1 -0.3 0.6
v -0.1 -0.3 -0.2
v -0.1 -0.2 0.6
v -0.1 -0.2 0.4
v -0.1 -0.1 0.4
v -0.1 -0.1 0.1
v -0.1 -0.1 -0.1
v -0.1 -0.1 -0.2
v -0.1 0 0.1
v -0.1 0 -0.1
v -0.1 0 -0.2
v 0.2 -0.3 0.6
v 0.2 -0.2 0.6
v -0.1 -0.3 0.6
v -0.1 -0.2 0.6
v 0.2 -0.2 0.4
v 0.2 -0.1 0.4
v 0.1 -0.2 0.4
v 0.1 -0.1 0.4
v -0.1 -0.2 0.4
v -0.1 -0.1 0.4
v 0.2 -0.1 0.1
v 0.2 0 0.1
v 0.1 -0.1 0.1
v 0.1 0 0.1
v -0.1 -0.1 0.1
v -0.1 0 0.1
v 0.2 -0.3 -0.2
v 0.2 -0.1 -0.2
v 0.2 0 -0.2
v 0.1 -0.3 -0.2
v 0.1 -0.2 -0.2
v 0 -0.3 -0.2
v 0 -0.2 -0.2
v -0.1 -0.3 -0.2
v -0.1 -0.1 -0.2
v -0.1 0 -0.2
v 0.2 -0.3 0.6
v -0.1 -0.3 0.6
v 0.2 -0.3 0.4
v 0.1 -0.3 0.4
v 0 -0.3 0.4
v 0.2 -0.3 0.3
v 0.1 -0.3 0.3
v 0.2 -0.3 0.2
v 0.1 -0.3 0.2
v 0.2 -0.3 0.1
v 0.1 -0.3 0.1
v 0.2 -0.3 5.96046e-008
v 0.1 -0.3 5.96046e-008
v 0.2 -0.3 -0.1
v 0.1 -0.3 -0.1
v 0.2 -0.3 -0.2
v 0.1 -0.3 -0.2
v 0 -0.3 -0.2
v -0.1 -0.3 -0.2
v 0.2 -0.2 0.6
v -0.1 -0.2 0.6
v 0.2 -0.2 0.4
v 0.1 -0.2 0.4
v -0.1 -0.2 0.4
v 0.2 -0.1 0.4
v 0.1 -0.1 0.4
v -0.1 -0.1 0.4
v 0.2 -0.1 0.3
v 0.1 -0.1 0.3
v 0.2 -0.1 0.2
v 0.1 -0.1 0.2
v 0.2 -0.1 0.1
v 0.1 -0.1 0.1
v -0.1 -0.1 0.1
v 0.2 0 0.1
v 0.1 0 0.1
v -0.1 0 0.1
v 0.1 0 -0.1
v -0.1 0 -0.1
v 0.2 0 -0.2
v -0.1 0 -0.2

# faces
f 1/1/1 2/1/1 9/1/1
f 2/2/1 3/2/1 10/2/1
f 9/1/1 2/1/1 10/1/1
f 10/2/1 3/2/1 11/2/1
f 3/1/1 4/1/1 12/1/1
f 11/2/1 3/2/1 12/2/1
f 4/2/1 5/2/1 13/2/1
f 12/1/1 4/1/1 13/1/1
f 5/1/1 6/1/1 14/1/1
f 13/2/1 5/2/1 14/2/1
f 6/2/1 7/2/1 15/2/1
f 14/1/1 6/1/1 15/1/1
f 7/1/1 8/1/1 16/1/1
f 15/2/1 7/2/1 16/2/1
f 16/1/1 8/1/1 17/1/1
f 14/5/1 15/5/1 18/5/1
f 16/5/1 17/5/1 18/5/1
f 15/5/1 16/5/1 18/5/1
f 18/5/1 17/5/1 19/5/1
f 22/1/2 21/1/2 20/1/2
f 23/1/2 21/1/2 22/1/2
f 24/1/2 21/1/2 23/1/2
f 25/1/2 21/1/2 24/1/2
f 26/1/2 21/1/2 25/1/2
f 27/1/2 21/1/2 26/1/2
f 28/3/2 26/3/2 25/3/2
f 29/5/2 27/5/2 26/5/2
f 29/3/2 26/3/2 28/3/2
f 30/5/2 27/5/2 29/5/2
f 31/1/3 32/1/3 33/1/3
f 33/1/3 32/1/3 34/1/3
f 35/2/3 36/2/3 37/2/3
f 37/2/3 36/2/3 38/2/3
f 37/1/3 38/1/3 39/1/3
f 39/1/3 38/1/3 40/1/3
f 41/5/3 42/5/3 43/5/3
f 43/5/3 42/5/3 44/5/3
f 43/3/3 44/3/3 45/3/3
f 45/3/3 44/3/3 46/3/3
f 50/1/4 48/1/4 47/1/4
f 51/1/4 48/1/4 50/1/4
f 52/4/4 51/4/4 50/4/4
f 53/1/4 48/1/4 51/1/4
f 53/4/4 51/4/4 52/4/4
f 54/1/4 53/1/4 52/1/4
f 55/5/4 49/5/4 48/5/4
f 55/1/4 53/1/4 54/1/4
f 55/1/4 48/1/4 53/1/4
f 56/5/4 49/5/4 55/5/4
f 57/1/5 58/1/5 59/1/5
f 59/1/5 58/1/5 60/1/5
f 60/1/5 58/1/5 61/1/5
f 59/2/5 60/2/5 62/2/5
f 60/4/5 61/4/5 63/4/5
f 62/2/5 60/2/5 63/2/5
f 62/1/5 63/1/5 64/1/5
f 63/4/5 61/4/5 65/4/5
f 64/1/5 63/1/5 65/1/5
f 64/2/5 65/2/5 66/2/5
f 65/4/5 61/4/5 67/4/5
f 66/2/5 65/2/5 67/2/5
f 66/1/5 67/1/5 68/1/5
f 67/4/5 61/4/5 69/4/5
f 68/1/5 67/1/5 69/1/5
f 68/2/5 69/2/5 70/2/5
f 69/4/5 61/4/5 71/4/5
f 70/2/5 69/2/5 71/2/5
f 70/1/5 71/1/5 72/1/5
f 71/4/5 61/4/5 73/4/5
f 72/1/5 71/1/5 73/1/5
f 61/1/5 58/1/5 74/1/5
f 73/4/5 61/4/5 74/4/5
f 74/1/5 58/1/5 75/1/5
f 78/1/6 77/1/6 76/1/6
f 79/1/6 77/1/6 78/1/6
f 80/1/6 77/1/6 79/1/6
f 84/2/6 82/2/6 81/2/6
f 85/1/6 83/1/6 82/1/6
f 85/2/6 82/2/6 84/2/6
f 86/1/6 85/1/6 84/1/6
f 87/1/6 83/1/6 85/1/6
f 87/1/6 85/1/6 86/1/6
f 88/2/6 87/2/6 86/2/6
f 89/1/6 83/1/6 87/1/6
f 89/2/6 87/2/6 88/2/6
f 90/1/6 83/1/6 89/1/6
f 94/5/6 92/5/6 91/5/6
f 94/3/6 93/3/6 92/3/6
f 95/3/6 93/3/6 94/3/6
f 96/5/6 94/5/6 91/5/6
f 96/5/6 95/5/6 94/5/6
f 97/5/6 95/5/6 96/5/6
