# MagicaVoxel @ Ephtracy

# group
o 

# material
mtllib hand-right.mtl
usemtl palette

# normals
vn 0 0 1
vn 0 0 -1
vn 0 -1 0
vn 0 1 0
vn 1 0 0
vn -1 0 0

# texcoords
vt 0.0175781 0.5
vt 0.0253906 0.5

# verts
v -0.1 0 0.2
v -0.1 0.1 0.2
v -0.2 0 0.2
v -0.2 0.1 0.2
v 0 -0.1 0.1
v 0 0.1 0.1
v -0.1 -0.1 0.1
v -0.1 0 0.1
v -0.1 0.1 0.1
v -0.2 0 0.1
v -0.2 0.1 0.1
v -0.3 -0.1 0.1
v -0.3 0 0.1
v -0.5 0 0.1
v -0.5 0.1 0.1
v 0 -0.1 -0.1
v 0 0.1 -0.1
v -0.1 -0.1 -0.1
v -0.1 0.1 -0.1
v -0.3 -0.1 -0.1
v -0.3 0 -0.1
v -0.5 0 -0.1
v -0.5 0.1 -0.1
v 0 -0.1 0.1
v -0.1 -0.1 0.1
v -0.3 -0.1 0.1
v 0 -0.1 -0.1
v -0.1 -0.1 -0.1
v -0.3 -0.1 -0.1
v -0.1 0 0.2
v -0.2 0 0.2
v -0.1 0 0.1
v -0.2 0 0.1
v -0.3 0 0.1
v -0.5 0 0.1
v -0.3 0 -0.1
v -0.5 0 -0.1
v -0.1 0.1 0.2
v -0.2 0.1 0.2
v 0 0.1 0.1
v -0.1 0.1 0.1
v -0.2 0.1 0.1
v -0.5 0.1 0.1
v 0 0.1 -0.1
v -0.1 0.1 -0.1
v -0.5 0.1 -0.1
v 0 -0.1 0.1
v 0 -0.1 -0.1
v 0 0.1 0.1
v 0 0.1 -0.1
v -0.1 0 0.2
v -0.1 0 0.1
v -0.1 0.1 0.2
v -0.1 0.1 0.1
v -0.2 0 0.2
v -0.2 0 0.1
v -0.2 0.1 0.2
v -0.2 0.1 0.1
v -0.3 -0.1 0.1
v -0.3 -0.1 -0.1
v -0.3 0 0.1
v -0.3 0 -0.1
v -0.5 0 0.1
v -0.5 0 -0.1
v -0.5 0.1 0.1
v -0.5 0.1 -0.1

# faces
f 1/2/1 2/2/1 3/2/1
f 3/2/1 2/2/1 4/2/1
f 5/1/1 6/1/1 7/1/1
f 7/1/1 6/1/1 8/1/1
f 8/1/1 6/1/1 9/1/1
f 7/2/1 8/2/1 10/2/1
f 7/2/1 10/2/1 12/2/1
f 10/2/1 11/2/1 12/2/1
f 12/2/1 11/2/1 13/2/1
f 13/2/1 11/2/1 14/2/1
f 14/2/1 11/2/1 15/2/1
f 18/1/2 17/1/2 16/1/2
f 19/1/2 17/1/2 18/1/2
f 20/2/2 19/2/2 18/2/2
f 21/2/2 19/2/2 20/2/2
f 22/2/2 19/2/2 21/2/2
f 23/2/2 19/2/2 22/2/2
f 24/1/3 25/1/3 27/1/3
f 25/2/3 26/2/3 28/2/3
f 27/1/3 25/1/3 28/1/3
f 28/2/3 26/2/3 29/2/3
f 30/2/3 31/2/3 32/2/3
f 32/2/3 31/2/3 33/2/3
f 34/2/3 35/2/3 36/2/3
f 36/2/3 35/2/3 37/2/3
f 41/2/4 39/2/4 38/2/4
f 42/2/4 39/2/4 41/2/4
f 44/1/4 41/1/4 40/1/4
f 45/2/4 43/2/4 42/2/4
f 45/1/4 41/1/4 44/1/4
f 45/2/4 42/2/4 41/2/4
f 46/2/4 43/2/4 45/2/4
f 47/1/5 48/1/5 49/1/5
f 49/1/5 48/1/5 50/1/5
f 51/2/5 52/2/5 53/2/5
f 53/2/5 52/2/5 54/2/5
f 57/2/6 56/2/6 55/2/6
f 58/2/6 56/2/6 57/2/6
f 61/2/6 60/2/6 59/2/6
f 62/2/6 60/2/6 61/2/6
f 65/2/6 64/2/6 63/2/6
f 66/2/6 64/2/6 65/2/6
