# MagicaVoxel @ Ephtracy

# group
o 

# material
mtllib head.mtl
usemtl palette

# normals
vn -1 0 0
vn 1 0 0
vn 0 0 1
vn 0 0 -1
vn 0 -1 0
vn 0 1 0

# texcoords
vt 0.00195313 0.5
vt 0.00585938 0.5
vt 0.0136719 0.5
vt 0.0175781 0.5
vt 0.0253906 0.5
vt 0.0332031 0.5

# verts
v -0.5 0.4 0.2
v -0.5 0.4 -0.3
v -0.5 0.7 0.5
v -0.5 0.7 0.2
v -0.5 1 0.5
v -0.5 1 -0.3
v -0.4 0.2 0.4
v -0.4 0.2 -0.3
v -0.4 0.3 0.5
v -0.4 0.3 0.4
v -0.4 0.4 0.2
v -0.4 0.4 -0.3
v -0.4 0.4 -0.4
v -0.4 0.6 0.5
v -0.4 0.6 0.4
v -0.4 0.7 0.5
v -0.4 0.7 0.4
v -0.4 0.7 0.2
v -0.4 1 0.4
v -0.4 1 -0.3
v -0.4 1 -0.4
v -0.4 1.1 0.4
v -0.4 1.1 -0.3
v -0.3 0.1 0.5
v -0.3 0.1 -0.3
v -0.3 0.2 0.4
v -0.3 0.2 -0.3
v -0.3 0.3 0.5
v -0.3 0.3 0.4
v -0.3 1 0.5
v -0.3 1 0.4
v -0.3 1.1 0.5
v -0.3 1.1 0.4
v -0.2 0 0.2
v -0.2 0 0.1
v -0.2 0 -0.1
v -0.2 0 -0.2
v -0.2 0.1 0.2
v -0.2 0.1 0.1
v -0.2 0.1 -0.1
v -0.2 0.1 -0.2
v -0.1 0.5 0.6
v -0.1 0.5 0.5
v -0.1 0.6 0.6
v -0.1 0.6 0.5
v 0.1 0.5 0.6
v 0.1 0.5 0.5
v 0.1 0.6 0.6
v 0.1 0.6 0.5
v 0.2 0 0.2
v 0.2 0 0.1
v 0.2 0 -0.1
v 0.2 0 -0.2
v 0.2 0.1 0.2
v 0.2 0.1 0.1
v 0.2 0.1 -0.1
v 0.2 0.1 -0.2
v 0.3 0.1 0.5
v 0.3 0.1 -0.3
v 0.3 0.2 0.4
v 0.3 0.2 -0.3
v 0.3 0.3 0.5
v 0.3 0.3 0.4
v 0.3 1 0.5
v 0.3 1 0.4
v 0.3 1.1 0.5
v 0.3 1.1 0.4
v 0.4 0.2 0.4
v 0.4 0.2 -0.3
v 0.4 0.3 0.5
v 0.4 0.3 0.4
v 0.4 0.4 0.2
v 0.4 0.4 -0.3
v 0.4 0.4 -0.4
v 0.4 0.6 0.5
v 0.4 0.6 0.4
v 0.4 0.7 0.5
v 0.4 0.7 0.4
v 0.4 0.7 0.2
v 0.4 1 0.4
v 0.4 1 -0.3
v 0.4 1 -0.4
v 0.4 1.1 0.4
v 0.4 1.1 -0.3
v 0.5 0.4 0.2
v 0.5 0.4 -0.3
v 0.5 0.7 0.5
v 0.5 0.7 0.2
v 0.5 1 0.5
v 0.5 1 -0.3
v -0.1 0.5 0.6
v -0.1 0.6 0.6
v 0.1 0.5 0.6
v 0.1 0.6 0.6
v -0.5 0.7 0.5
v -0.5 1 0.5
v -0.4 0.3 0.5
v -0.4 0.6 0.5
v -0.4 0.7 0.5
v -0.4 0.8 0.5
v -0.4 0.9 0.5
v -0.3 0.1 0.5
v -0.3 0.3 0.5
v -0.3 0.6 0.5
v -0.3 0.7 0.5
v -0.3 1 0.5
v -0.3 1.1 0.5
v -0.2 0.6 0.5
v -0.2 0.7 0.5
v -0.1 0.2 0.5
v -0.1 0.3 0.5
v -0.1 0.5 0.5
v -0.1 0.6 0.5
v -0.1 0.8 0.5
v 0.1 0.2 0.5
v 0.1 0.3 0.5
v 0.1 0.5 0.5
v 0.1 0.6 0.5
v 0.1 0.8 0.5
v 0.2 0.6 0.5
v 0.2 0.7 0.5
v 0.3 0.1 0.5
v 0.3 0.3 0.5
v 0.3 0.6 0.5
v 0.3 0.7 0.5
v 0.3 1 0.5
v 0.3 1.1 0.5
v 0.4 0.3 0.5
v 0.4 0.6 0.5
v 0.4 0.7 0.5
v 0.4 0.8 0.5
v 0.4 0.9 0.5
v 0.5 0.7 0.5
v 0.5 1 0.5
v -0.4 0.2 0.4
v -0.4 0.3 0.4
v -0.4 1 0.4
v -0.4 1.1 0.4
v -0.3 0.2 0.4
v -0.3 0.3 0.4
v -0.3 1 0.4
v -0.3 1.1 0.4
v 0.3 0.2 0.4
v 0.3 0.3 0.4
v 0.3 1 0.4
v 0.3 1.1 0.4
v 0.4 0.2 0.4
v 0.4 0.3 0.4
v 0.4 1 0.4
v 0.4 1.1 0.4
v -0.5 0.4 0.2
v -0.5 0.7 0.2
v -0.4 0.4 0.2
v -0.4 0.7 0.2
v -0.2 0 0.2
v -0.2 0.1 0.2
v -0.1 0 0.2
v -0.1 0.1 0.2
v 0.1 0 0.2
v 0.1 0.1 0.2
v 0.2 0 0.2
v 0.2 0.1 0.2
v 0.4 0.4 0.2
v 0.4 0.7 0.2
v 0.5 0.4 0.2
v 0.5 0.7 0.2
v -0.2 0 -0.2
v -0.2 0.1 -0.2
v -0.1 0 -0.2
v -0.1 0.1 -0.2
v 0.1 0 -0.2
v 0.1 0.1 -0.2
v 0.2 0 -0.2
v 0.2 0.1 -0.2
v -0.5 0.4 -0.3
v -0.5 1 -0.3
v -0.4 0.2 -0.3
v -0.4 0.4 -0.3
v -0.4 1 -0.3
v -0.4 1.1 -0.3
v -0.3 0.1 -0.3
v -0.3 0.2 -0.3
v 0.3 0.1 -0.3
v 0.3 0.2 -0.3
v 0.4 0.2 -0.3
v 0.4 0.4 -0.3
v 0.4 1 -0.3
v 0.4 1.1 -0.3
v 0.5 0.4 -0.3
v 0.5 1 -0.3
v -0.4 0.4 -0.4
v -0.4 1 -0.4
v 0.4 0.4 -0.4
v 0.4 1 -0.4
v -0.2 0 0.2
v -0.1 0 0.2
v 0.1 0 0.2
v 0.2 0 0.2
v -0.2 0 0.1
v -0.1 0 0.1
v 0.1 0 0.1
v 0.2 0 0.1
v -0.2 0 -0.1
v -0.1 0 -0.1
v 0.1 0 -0.1
v 0.2 0 -0.1
v -0.2 0 -0.2
v -0.1 0 -0.2
v 0.1 0 -0.2
v 0.2 0 -0.2
v -0.3 0.1 0.5
v 0.3 0.1 0.5
v -0.2 0.1 0.2
v -0.1 0.1 0.2
v 0.1 0.1 0.2
v 0.2 0.1 0.2
v -0.2 0.1 0.1
v 0.2 0.1 0.1
v -0.2 0.1 -0.1
v 0.2 0.1 -0.1
v -0.2 0.1 -0.2
v -0.1 0.1 -0.2
v 0.1 0.1 -0.2
v 0.2 0.1 -0.2
v -0.3 0.1 -0.3
v 0.3 0.1 -0.3
v -0.4 0.2 0.4
v -0.3 0.2 0.4
v 0.3 0.2 0.4
v 0.4 0.2 0.4
v -0.4 0.2 -0.3
v -0.3 0.2 -0.3
v 0.3 0.2 -0.3
v 0.4 0.2 -0.3
v -0.4 0.3 0.5
v -0.3 0.3 0.5
v 0.3 0.3 0.5
v 0.4 0.3 0.5
v -0.4 0.3 0.4
v -0.3 0.3 0.4
v 0.3 0.3 0.4
v 0.4 0.3 0.4
v -0.5 0.4 0.2
v -0.4 0.4 0.2
v 0.4 0.4 0.2
v 0.5 0.4 0.2
v -0.5 0.4 -0.3
v -0.4 0.4 -0.3
v 0.4 0.4 -0.3
v 0.5 0.4 -0.3
v -0.4 0.4 -0.4
v 0.4 0.4 -0.4
v -0.1 0.5 0.6
v 0.1 0.5 0.6
v -0.1 0.5 0.5
v 0.1 0.5 0.5
v -0.5 0.7 0.5
v -0.4 0.7 0.5
v 0.4 0.7 0.5
v 0.5 0.7 0.5
v -0.4 0.7 0.4
v 0.4 0.7 0.4
v -0.5 0.7 0.2
v -0.4 0.7 0.2
v 0.4 0.7 0.2
v 0.5 0.7 0.2
v -0.1 0.6 0.6
v 0.1 0.6 0.6
v -0.1 0.6 0.5
v 0.1 0.6 0.5
v -0.5 1 0.5
v -0.3 1 0.5
v 0.3 1 0.5
v 0.5 1 0.5
v -0.4 1 0.4
v -0.3 1 0.4
v 0.3 1 0.4
v 0.4 1 0.4
v -0.5 1 -0.3
v -0.4 1 -0.3
v 0.4 1 -0.3
v 0.5 1 -0.3
v -0.4 1 -0.4
v 0.4 1 -0.4
v -0.3 1.1 0.5
v 0.3 1.1 0.5
v -0.4 1.1 0.4
v -0.3 1.1 0.4
v 0.3 1.1 0.4
v 0.4 1.1 0.4
v -0.4 1.1 -0.3
v 0.4 1.1 -0.3

# faces
f 4/6/1 2/6/1 1/6/1
f 5/6/1 4/6/1 3/6/1
f 6/6/1 2/6/1 4/6/1
f 6/6/1 4/6/1 5/6/1
f 10/5/1 8/5/1 7/5/1
f 11/5/1 8/5/1 10/5/1
f 11/5/1 10/5/1 9/5/1
f 12/5/1 8/5/1 11/5/1
f 14/5/1 11/5/1 9/5/1
f 15/5/1 11/5/1 14/5/1
f 16/2/1 15/2/1 14/2/1
f 17/5/1 11/5/1 15/5/1
f 17/2/1 15/2/1 16/2/1
f 18/5/1 11/5/1 17/5/1
f 20/6/1 13/6/1 12/6/1
f 21/6/1 13/6/1 20/6/1
f 22/6/1 20/6/1 19/6/1
f 23/6/1 20/6/1 22/6/1
f 26/5/1 25/5/1 24/5/1
f 27/5/1 25/5/1 26/5/1
f 28/5/1 26/5/1 24/5/1
f 29/5/1 26/5/1 28/5/1
f 32/6/1 31/6/1 30/6/1
f 33/6/1 31/6/1 32/6/1
f 38/5/1 35/5/1 34/5/1
f 39/4/1 36/4/1 35/4/1
f 39/5/1 35/5/1 38/5/1
f 40/5/1 37/5/1 36/5/1
f 40/4/1 36/4/1 39/4/1
f 41/5/1 37/5/1 40/5/1
f 44/5/1 43/5/1 42/5/1
f 45/5/1 43/5/1 44/5/1
f 46/5/2 47/5/2 48/5/2
f 48/5/2 47/5/2 49/5/2
f 50/5/2 51/5/2 54/5/2
f 51/4/2 52/4/2 55/4/2
f 54/5/2 51/5/2 55/5/2
f 52/5/2 53/5/2 56/5/2
f 55/4/2 52/4/2 56/4/2
f 56/5/2 53/5/2 57/5/2
f 58/5/2 59/5/2 60/5/2
f 60/5/2 59/5/2 61/5/2
f 58/5/2 60/5/2 62/5/2
f 62/5/2 60/5/2 63/5/2
f 64/6/2 65/6/2 66/6/2
f 66/6/2 65/6/2 67/6/2
f 68/5/2 69/5/2 71/5/2
f 71/5/2 69/5/2 72/5/2
f 70/5/2 71/5/2 72/5/2
f 72/5/2 69/5/2 73/5/2
f 70/5/2 72/5/2 75/5/2
f 75/5/2 72/5/2 76/5/2
f 75/2/2 76/2/2 77/2/2
f 76/5/2 72/5/2 78/5/2
f 77/2/2 76/2/2 78/2/2
f 78/5/2 72/5/2 79/5/2
f 73/6/2 74/6/2 81/6/2
f 81/6/2 74/6/2 82/6/2
f 80/6/2 81/6/2 83/6/2
f 83/6/2 81/6/2 84/6/2
f 85/6/2 86/6/2 88/6/2
f 87/6/2 88/6/2 89/6/2
f 88/6/2 86/6/2 90/6/2
f 89/6/2 88/6/2 90/6/2
f 93/5/3 92/5/3 91/5/3
f 94/5/3 92/5/3 93/5/3
f 99/6/3 96/6/3 95/6/3
f 100/6/3 96/6/3 99/6/3
f 101/6/3 96/6/3 100/6/3
f 103/5/3 98/5/3 97/5/3
f 104/2/3 99/2/3 98/2/3
f 104/2/3 100/2/3 99/2/3
f 104/5/3 98/5/3 103/5/3
f 105/2/3 100/2/3 104/2/3
f 106/6/3 96/6/3 101/6/3
f 108/5/3 103/5/3 102/5/3
f 108/5/3 104/5/3 103/5/3
f 108/1/3 105/1/3 104/1/3
f 109/2/3 100/2/3 105/2/3
f 109/1/3 105/1/3 108/1/3
f 110/5/3 108/5/3 102/5/3
f 111/5/3 108/5/3 110/5/3
f 112/5/3 108/5/3 111/5/3
f 113/2/3 109/2/3 108/2/3
f 113/5/3 108/5/3 112/5/3
f 114/2/3 100/2/3 109/2/3
f 114/2/3 109/2/3 113/2/3
f 114/1/3 101/1/3 100/1/3
f 115/3/3 111/3/3 110/3/3
f 115/5/3 110/5/3 102/5/3
f 116/5/3 112/5/3 111/5/3
f 116/3/3 111/3/3 115/3/3
f 117/5/3 112/5/3 116/5/3
f 118/5/3 114/5/3 113/5/3
f 119/1/3 101/1/3 114/1/3
f 119/5/3 114/5/3 118/5/3
f 120/5/3 118/5/3 117/5/3
f 120/5/3 117/5/3 116/5/3
f 120/2/3 119/2/3 118/2/3
f 120/5/3 116/5/3 115/5/3
f 121/2/3 119/2/3 120/2/3
f 122/5/3 115/5/3 102/5/3
f 122/5/3 120/5/3 115/5/3
f 123/5/3 120/5/3 122/5/3
f 124/1/3 121/1/3 120/1/3
f 124/5/3 120/5/3 123/5/3
f 125/2/3 119/2/3 121/2/3
f 125/1/3 121/1/3 124/1/3
f 126/6/3 107/6/3 106/6/3
f 126/6/3 106/6/3 101/6/3
f 127/6/3 107/6/3 126/6/3
f 128/5/3 124/5/3 123/5/3
f 129/2/3 125/2/3 124/2/3
f 129/5/3 124/5/3 128/5/3
f 130/2/3 119/2/3 125/2/3
f 130/2/3 125/2/3 129/2/3
f 131/1/3 101/1/3 119/1/3
f 131/2/3 119/2/3 130/2/3
f 132/6/3 126/6/3 101/6/3
f 132/1/3 101/1/3 131/1/3
f 133/6/3 132/6/3 131/6/3
f 133/6/3 131/6/3 130/6/3
f 134/6/3 126/6/3 132/6/3
f 134/6/3 132/6/3 133/6/3
f 139/5/3 136/5/3 135/5/3
f 140/5/3 136/5/3 139/5/3
f 141/6/3 138/6/3 137/6/3
f 142/6/3 138/6/3 141/6/3
f 147/5/3 144/5/3 143/5/3
f 148/5/3 144/5/3 147/5/3
f 149/6/3 146/6/3 145/6/3
f 150/6/3 146/6/3 149/6/3
f 153/6/3 152/6/3 151/6/3
f 154/6/3 152/6/3 153/6/3
f 157/5/3 156/5/3 155/5/3
f 158/5/3 156/5/3 157/5/3
f 159/4/3 158/4/3 157/4/3
f 160/4/3 158/4/3 159/4/3
f 161/5/3 160/5/3 159/5/3
f 162/5/3 160/5/3 161/5/3
f 165/6/3 164/6/3 163/6/3
f 166/6/3 164/6/3 165/6/3
f 167/5/4 168/5/4 169/5/4
f 169/5/4 168/5/4 170/5/4
f 169/4/4 170/4/4 171/4/4
f 171/4/4 170/4/4 172/4/4
f 171/5/4 172/5/4 173/5/4
f 173/5/4 172/5/4 174/5/4
f 175/6/4 176/6/4 178/6/4
f 178/6/4 176/6/4 179/6/4
f 177/5/4 178/5/4 182/5/4
f 181/5/4 182/5/4 183/5/4
f 182/5/4 178/5/4 184/5/4
f 183/5/4 182/5/4 184/5/4
f 184/5/4 178/5/4 185/5/4
f 185/5/4 178/5/4 186/5/4
f 179/6/4 180/6/4 187/6/4
f 187/6/4 180/6/4 188/6/4
f 186/6/4 187/6/4 189/6/4
f 189/6/4 187/6/4 190/6/4
f 191/6/4 192/6/4 193/6/4
f 193/6/4 192/6/4 194/6/4
f 199/5/5 196/5/5 195/5/5
f 200/4/5 197/4/5 196/4/5
f 200/5/5 196/5/5 199/5/5
f 201/5/5 198/5/5 197/5/5
f 201/4/5 197/4/5 200/4/5
f 202/5/5 198/5/5 201/5/5
f 203/4/5 200/4/5 199/4/5
f 203/4/5 201/4/5 200/4/5
f 203/4/5 202/4/5 201/4/5
f 204/4/5 202/4/5 203/4/5
f 205/4/5 202/4/5 204/4/5
f 206/4/5 202/4/5 205/4/5
f 207/5/5 204/5/5 203/5/5
f 208/4/5 205/4/5 204/4/5
f 208/5/5 204/5/5 207/5/5
f 209/5/5 206/5/5 205/5/5
f 209/4/5 205/4/5 208/4/5
f 210/5/5 206/5/5 209/5/5
f 213/5/5 212/5/5 211/5/5
f 214/5/5 212/5/5 213/5/5
f 215/5/5 212/5/5 214/5/5
f 216/5/5 212/5/5 215/5/5
f 217/5/5 213/5/5 211/5/5
f 218/5/5 212/5/5 216/5/5
f 219/5/5 217/5/5 211/5/5
f 220/5/5 212/5/5 218/5/5
f 221/5/5 219/5/5 211/5/5
f 224/5/5 212/5/5 220/5/5
f 225/5/5 223/5/5 222/5/5
f 225/5/5 224/5/5 223/5/5
f 225/5/5 221/5/5 211/5/5
f 225/5/5 222/5/5 221/5/5
f 226/5/5 212/5/5 224/5/5
f 226/5/5 224/5/5 225/5/5
f 231/5/5 228/5/5 227/5/5
f 232/5/5 228/5/5 231/5/5
f 233/5/5 230/5/5 229/5/5
f 234/5/5 230/5/5 233/5/5
f 239/5/5 236/5/5 235/5/5
f 240/5/5 236/5/5 239/5/5
f 241/5/5 238/5/5 237/5/5
f 242/5/5 238/5/5 241/5/5
f 247/6/5 244/6/5 243/6/5
f 248/6/5 244/6/5 247/6/5
f 249/6/5 246/6/5 245/6/5
f 250/6/5 246/6/5 249/6/5
f 251/6/5 249/6/5 248/6/5
f 252/6/5 249/6/5 251/6/5
f 255/5/5 254/5/5 253/5/5
f 256/5/5 254/5/5 255/5/5
f 261/6/5 258/6/5 257/6/5
f 262/6/5 260/6/5 259/6/5
f 263/6/5 261/6/5 257/6/5
f 264/6/5 261/6/5 263/6/5
f 265/6/5 260/6/5 262/6/5
f 266/6/5 260/6/5 265/6/5
f 267/5/6 268/5/6 269/5/6
f 269/5/6 268/5/6 270/5/6
f 271/6/6 272/6/6 275/6/6
f 275/6/6 272/6/6 276/6/6
f 273/6/6 274/6/6 277/6/6
f 277/6/6 274/6/6 278/6/6
f 271/6/6 275/6/6 279/6/6
f 279/6/6 275/6/6 280/6/6
f 278/6/6 274/6/6 281/6/6
f 281/6/6 274/6/6 282/6/6
f 280/6/6 281/6/6 283/6/6
f 283/6/6 281/6/6 284/6/6
f 285/6/6 286/6/6 288/6/6
f 288/6/6 286/6/6 289/6/6
f 287/6/6 288/6/6 291/6/6
f 289/6/6 290/6/6 291/6/6
f 288/6/6 289/6/6 291/6/6
f 291/6/6 290/6/6 292/6/6
