# MagicaVoxel @ Ephtracy

# group
o 

# material
mtllib leg-left-lower.mtl
usemtl palette

# normals
vn 1 0 0
vn -1 0 0
vn 0 0 1
vn 0 0 -1
vn 0 -1 0
vn 0 1 0

# texcoords
vt 0.00585938 0.5
vt 0.0136719 0.5
vt 0.0175781 0.5
vt 0.0253906 0.5

# verts
v 0.2 -1.1 0.1
v 0.2 -1.1 -0.2
v 0.2 -1 0.1
v 0.2 -1 -0.2
v 0.2 -0.6 -0.2
v 0.2 -0.6 -0.3
v 0.2 -0.1 0.1
v 0.2 -0.1 -0.3
v 0.2 0 0.1
v 0.2 0 -0.3
v -0.1 -1.1 0.1
v -0.1 -1.1 -0.1
v -0.1 -1.1 -0.2
v -0.1 -1 0.1
v -0.1 -1 -0.1
v -0.1 -1 -0.2
v -0.1 -0.6 -0.2
v -0.1 -0.6 -0.3
v -0.1 -0.1 0.1
v -0.1 -0.1 -0.1
v -0.1 -0.1 -0.3
v -0.1 0 0.1
v -0.1 0 -0.1
v -0.1 0 -0.3
v 0.2 -1.1 0.1
v 0.2 -1 0.1
v 0.2 -0.1 0.1
v 0.2 0 0.1
v 0.1 -1.1 0.1
v 0.1 -1 0.1
v 0.1 -0.1 0.1
v 0.1 0 0.1
v 0 -1 0.1
v 0 -0.1 0.1
v -0.1 -1.1 0.1
v -0.1 -1 0.1
v -0.1 -0.1 0.1
v -0.1 0 0.1
v 0.2 -1.1 -0.2
v 0.2 -1 -0.2
v 0.2 -0.6 -0.2
v -0.1 -1.1 -0.2
v -0.1 -1 -0.2
v -0.1 -0.6 -0.2
v 0.2 -0.6 -0.3
v 0.2 -0.1 -0.3
v 0.2 0 -0.3
v -0.1 -0.6 -0.3
v -0.1 -0.1 -0.3
v -0.1 0 -0.3
v 0.2 -1.1 0.1
v 0.1 -1.1 0.1
v -0.1 -1.1 0.1
v 0.1 -1.1 -0.1
v -0.1 -1.1 -0.1
v 0.2 -1.1 -0.2
v -0.1 -1.1 -0.2
v 0.2 -0.6 -0.2
v -0.1 -0.6 -0.2
v 0.2 -0.6 -0.3
v -0.1 -0.6 -0.3
v 0.2 0 0.1
v 0.1 0 0.1
v -0.1 0 0.1
v 0.1 0 -0.1
v 0 0 -0.1
v -0.1 0 -0.1
v 0.1 0 -0.2
v 0 0 -0.2
v 0.2 0 -0.3
v -0.1 0 -0.3

# faces
f 1/2/1 2/2/1 3/2/1
f 3/2/1 2/2/1 4/2/1
f 3/4/1 4/4/1 5/4/1
f 3/4/1 5/4/1 7/4/1
f 5/4/1 6/4/1 7/4/1
f 7/4/1 6/4/1 8/4/1
f 7/1/1 8/1/1 9/1/1
f 9/1/1 8/1/1 10/1/1
f 14/3/2 12/3/2 11/3/2
f 15/2/2 13/2/2 12/2/2
f 15/3/2 12/3/2 14/3/2
f 16/2/2 13/2/2 15/2/2
f 17/4/2 15/4/2 14/4/2
f 17/4/2 16/4/2 15/4/2
f 19/4/2 17/4/2 14/4/2
f 19/4/2 18/4/2 17/4/2
f 20/4/2 18/4/2 19/4/2
f 21/4/2 18/4/2 20/4/2
f 22/3/2 20/3/2 19/3/2
f 23/1/2 21/1/2 20/1/2
f 23/3/2 20/3/2 22/3/2
f 24/1/2 21/1/2 23/1/2
f 25/2/3 26/2/3 29/2/3
f 26/4/3 27/4/3 30/4/3
f 29/2/3 26/2/3 30/2/3
f 27/1/3 28/1/3 31/1/3
f 30/4/3 27/4/3 31/4/3
f 31/1/3 28/1/3 32/1/3
f 29/3/3 30/3/3 33/3/3
f 30/1/3 31/1/3 33/1/3
f 31/3/3 32/3/3 34/3/3
f 33/1/3 31/1/3 34/1/3
f 29/3/3 33/3/3 35/3/3
f 33/4/3 34/4/3 36/4/3
f 35/3/3 33/3/3 36/3/3
f 34/3/3 32/3/3 37/3/3
f 36/4/3 34/4/3 37/4/3
f 37/3/3 32/3/3 38/3/3
f 42/2/4 40/2/4 39/2/4
f 43/4/4 41/4/4 40/4/4
f 43/2/4 40/2/4 42/2/4
f 44/4/4 41/4/4 43/4/4
f 48/4/4 46/4/4 45/4/4
f 49/1/4 47/1/4 46/1/4
f 49/4/4 46/4/4 48/4/4
f 50/1/4 47/1/4 49/1/4
f 51/2/5 52/2/5 54/2/5
f 52/3/5 53/3/5 54/3/5
f 54/3/5 53/3/5 55/3/5
f 51/2/5 54/2/5 56/2/5
f 54/2/5 55/2/5 56/2/5
f 56/2/5 55/2/5 57/2/5
f 58/4/5 59/4/5 60/4/5
f 60/4/5 59/4/5 61/4/5
f 65/1/6 63/1/6 62/1/6
f 65/3/6 64/3/6 63/3/6
f 66/3/6 64/3/6 65/3/6
f 67/3/6 64/3/6 66/3/6
f 68/1/6 65/1/6 62/1/6
f 68/4/6 66/4/6 65/4/6
f 69/1/6 67/1/6 66/1/6
f 69/4/6 66/4/6 68/4/6
f 70/1/6 68/1/6 62/1/6
f 70/1/6 69/1/6 68/1/6
f 71/1/6 67/1/6 69/1/6
f 71/1/6 69/1/6 70/1/6
