# MagicaVoxel @ Ephtracy

# group
o 

# material
mtllib leg-right-upper.mtl
usemtl palette

# normals
vn -1 0 0
vn 1 0 0
vn 0 0 1
vn 0 0 -1
vn 0 -1 0
vn 0 1 0

# texcoords
vt 0.00585938 0.5
vt 0.0175781 0.5
vt 0.0253906 0.5

# verts
v -0.2 -1.2 0.2
v -0.2 -1.2 -0.2
v -0.2 -1.1 0.2
v -0.2 -1.1 -0.2
v -0.2 -0.7 0.3
v -0.2 -0.7 0.2
v -0.2 -0.1 0.3
v -0.2 -0.1 0.1
v -0.2 -0.1 -0.1
v -0.2 -0.1 -0.2
v -0.2 0 0.3
v -0.2 0 0.1
v -0.2 0 -0.1
v -0.2 0 -0.2
v 0.1 -1.2 0.2
v 0.1 -1.2 0.1
v 0.1 -1.2 -0.1
v 0.1 -1.2 -0.2
v 0.1 -1.1 0.2
v 0.1 -1.1 0.1
v 0.1 -1.1 -0.1
v 0.1 -1.1 -0.2
v 0.1 -1 0.1
v 0.1 -1 -0.1
v 0.1 -0.7 0.2
v 0.1 -0.7 -0.2
v 0.2 -0.7 0.3
v 0.2 -0.7 -0.2
v 0.2 -0.1 0.3
v 0.2 -0.1 0.1
v 0.2 -0.1 -0.1
v 0.2 -0.1 -0.2
v 0.2 0 0.3
v 0.2 0 0.1
v 0.2 0 -0.1
v 0.2 0 -0.2
v -0.2 -0.7 0.3
v -0.2 -0.1 0.3
v -0.2 0 0.3
v -0.1 -0.7 0.3
v -0.1 -0.1 0.3
v -0.1 0 0.3
v 0 -0.7 0.3
v 0 -0.1 0.3
v 0.1 -0.1 0.3
v 0.1 0 0.3
v 0.2 -0.7 0.3
v 0.2 -0.1 0.3
v 0.2 0 0.3
v -0.2 -1.2 0.2
v -0.2 -1.1 0.2
v -0.2 -0.7 0.2
v -0.1 -1.1 0.2
v -0.1 -0.7 0.2
v 0 -1.1 0.2
v 0 -0.7 0.2
v 0.1 -1.2 0.2
v 0.1 -1.1 0.2
v 0.1 -0.7 0.2
v -0.2 -1.2 -0.2
v -0.2 -1.1 -0.2
v -0.2 -0.1 -0.2
v -0.2 0 -0.2
v -0.1 -0.1 -0.2
v -0.1 0 -0.2
v 0.1 -1.2 -0.2
v 0.1 -1.1 -0.2
v 0.1 -0.7 -0.2
v 0.1 -0.1 -0.2
v 0.1 0 -0.2
v 0.2 -0.7 -0.2
v 0.2 -0.1 -0.2
v 0.2 0 -0.2
v -0.2 -1.2 0.2
v 0.1 -1.2 0.2
v -0.1 -1.2 0.1
v 0.1 -1.2 0.1
v -0.1 -1.2 -0.1
v 0.1 -1.2 -0.1
v -0.2 -1.2 -0.2
v 0.1 -1.2 -0.2
v -0.2 -0.7 0.3
v -0.1 -0.7 0.3
v 0 -0.7 0.3
v 0.2 -0.7 0.3
v -0.2 -0.7 0.2
v -0.1 -0.7 0.2
v 0 -0.7 0.2
v 0.1 -0.7 0.2
v 0.1 -0.7 -0.2
v 0.2 -0.7 -0.2
v -0.2 0 0.3
v -0.1 0 0.3
v 0.1 0 0.3
v 0.2 0 0.3
v -0.2 0 0.1
v -0.1 0 0.1
v 0.1 0 0.1
v 0.2 0 0.1
v -0.2 0 -0.1
v -0.1 0 -0.1
v 0.1 0 -0.1
v 0.2 0 -0.1
v -0.2 0 -0.2
v -0.1 0 -0.2
v 0.1 0 -0.2
v 0.2 0 -0.2

# faces
f 3/1/1 2/1/1 1/1/1
f 4/1/1 2/1/1 3/1/1
f 6/3/1 4/3/1 3/3/1
f 7/3/1 6/3/1 5/3/1
f 8/3/1 4/3/1 6/3/1
f 8/3/1 6/3/1 7/3/1
f 9/3/1 4/3/1 8/3/1
f 10/3/1 4/3/1 9/3/1
f 11/1/1 8/1/1 7/1/1
f 12/2/1 9/2/1 8/2/1
f 12/1/1 8/1/1 11/1/1
f 13/1/1 10/1/1 9/1/1
f 13/2/1 9/2/1 12/2/1
f 14/1/1 10/1/1 13/1/1
f 15/1/2 16/1/2 19/1/2
f 16/2/2 17/2/2 20/2/2
f 19/1/2 16/1/2 20/1/2
f 17/1/2 18/1/2 21/1/2
f 20/2/2 17/2/2 21/2/2
f 21/1/2 18/1/2 22/1/2
f 19/3/2 20/3/2 23/3/2
f 20/2/2 21/2/2 23/2/2
f 21/3/2 22/3/2 24/3/2
f 23/2/2 21/2/2 24/2/2
f 19/3/2 23/3/2 25/3/2
f 23/3/2 24/3/2 25/3/2
f 24/3/2 22/3/2 26/3/2
f 25/3/2 24/3/2 26/3/2
f 27/3/2 28/3/2 29/3/2
f 29/3/2 28/3/2 30/3/2
f 30/3/2 28/3/2 31/3/2
f 31/3/2 28/3/2 32/3/2
f 29/1/2 30/1/2 33/1/2
f 30/2/2 31/2/2 34/2/2
f 33/1/2 30/1/2 34/1/2
f 31/1/2 32/1/2 35/1/2
f 34/2/2 31/2/2 35/2/2
f 35/1/2 32/1/2 36/1/2
f 40/3/3 38/3/3 37/3/3
f 41/1/3 39/1/3 38/1/3
f 41/3/3 38/3/3 40/3/3
f 42/1/3 39/1/3 41/1/3
f 43/1/3 41/1/3 40/1/3
f 44/2/3 42/2/3 41/2/3
f 44/1/3 41/1/3 43/1/3
f 45/3/3 44/3/3 43/3/3
f 45/2/3 42/2/3 44/2/3
f 46/2/3 42/2/3 45/2/3
f 47/3/3 45/3/3 43/3/3
f 48/1/3 46/1/3 45/1/3
f 48/3/3 45/3/3 47/3/3
f 49/1/3 46/1/3 48/1/3
f 53/1/3 51/1/3 50/1/3
f 53/3/3 52/3/3 51/3/3
f 54/3/3 52/3/3 53/3/3
f 55/1/3 53/1/3 50/1/3
f 55/1/3 54/1/3 53/1/3
f 56/1/3 54/1/3 55/1/3
f 57/1/3 55/1/3 50/1/3
f 58/3/3 56/3/3 55/3/3
f 58/1/3 55/1/3 57/1/3
f 59/3/3 56/3/3 58/3/3
f 61/3/4 62/3/4 64/3/4
f 62/1/4 63/1/4 64/1/4
f 64/1/4 63/1/4 65/1/4
f 60/1/4 61/1/4 66/1/4
f 61/3/4 64/3/4 67/3/4
f 66/1/4 61/1/4 67/1/4
f 67/3/4 64/3/4 68/3/4
f 64/2/4 65/2/4 69/2/4
f 68/3/4 64/3/4 69/3/4
f 69/2/4 65/2/4 70/2/4
f 68/3/4 69/3/4 71/3/4
f 69/1/4 70/1/4 72/1/4
f 71/3/4 69/3/4 72/3/4
f 72/1/4 70/1/4 73/1/4
f 76/1/5 75/1/5 74/1/5
f 77/1/5 75/1/5 76/1/5
f 78/1/5 76/1/5 74/1/5
f 78/2/5 77/2/5 76/2/5
f 79/2/5 77/2/5 78/2/5
f 80/1/5 78/1/5 74/1/5
f 80/1/5 79/1/5 78/1/5
f 81/1/5 79/1/5 80/1/5
f 86/3/5 83/3/5 82/3/5
f 87/1/5 84/1/5 83/1/5
f 87/3/5 83/3/5 86/3/5
f 88/3/5 85/3/5 84/3/5
f 88/1/5 84/1/5 87/1/5
f 89/3/5 85/3/5 88/3/5
f 90/3/5 85/3/5 89/3/5
f 91/3/5 85/3/5 90/3/5
f 92/1/6 93/1/6 96/1/6
f 93/2/6 94/2/6 97/2/6
f 96/1/6 93/1/6 97/1/6
f 94/1/6 95/1/6 98/1/6
f 97/2/6 94/2/6 98/2/6
f 98/1/6 95/1/6 99/1/6
f 96/2/6 97/2/6 100/2/6
f 97/2/6 98/2/6 100/2/6
f 98/2/6 99/2/6 100/2/6
f 100/2/6 99/2/6 101/2/6
f 101/2/6 99/2/6 102/2/6
f 102/2/6 99/2/6 103/2/6
f 100/1/6 101/1/6 104/1/6
f 101/2/6 102/2/6 105/2/6
f 104/1/6 101/1/6 105/1/6
f 102/1/6 103/1/6 106/1/6
f 105/2/6 102/2/6 106/2/6
f 106/1/6 103/1/6 107/1/6
