# MagicaVoxel @ Ephtracy

# group
o 

# material
mtllib leg-right-lower.mtl
usemtl palette

# normals
vn 1 0 0
vn -1 0 0
vn 0 0 1
vn 0 0 -1
vn 0 -1 0
vn 0 1 0

# texcoords
vt 0.00585938 0.5
vt 0.0136719 0.5
vt 0.0175781 0.5
vt 0.0253906 0.5

# verts
v 0.1 -1.1 0.1
v 0.1 -1.1 -0.1
v 0.1 -1.1 -0.2
v 0.1 -1 0.1
v 0.1 -1 -0.1
v 0.1 -1 -0.2
v 0.1 -0.6 -0.2
v 0.1 -0.6 -0.3
v 0.1 -0.1 0.1
v 0.1 -0.1 -0.1
v 0.1 -0.1 -0.3
v 0.1 0 0.1
v 0.1 0 -0.1
v 0.1 0 -0.3
v -0.2 -1.1 0.1
v -0.2 -1.1 -0.2
v -0.2 -1 0.1
v -0.2 -1 -0.2
v -0.2 -0.6 -0.2
v -0.2 -0.6 -0.3
v -0.2 -0.1 0.1
v -0.2 -0.1 -0.3
v -0.2 0 0.1
v -0.2 0 -0.3
v 0.1 -1.1 0.1
v 0.1 -1 0.1
v 0.1 -0.1 0.1
v 0.1 0 0.1
v 0 -1 0.1
v 0 -0.1 0.1
v -0.1 -1.1 0.1
v -0.1 -1 0.1
v -0.1 -0.1 0.1
v -0.1 0 0.1
v -0.2 -1.1 0.1
v -0.2 -1 0.1
v -0.2 -0.1 0.1
v -0.2 0 0.1
v 0.1 -1.1 -0.2
v 0.1 -1 -0.2
v 0.1 -0.6 -0.2
v -0.2 -1.1 -0.2
v -0.2 -1 -0.2
v -0.2 -0.6 -0.2
v 0.1 -0.6 -0.3
v 0.1 -0.1 -0.3
v 0.1 0 -0.3
v -0.2 -0.6 -0.3
v -0.2 -0.1 -0.3
v -0.2 0 -0.3
v 0.1 -1.1 0.1
v -0.1 -1.1 0.1
v -0.2 -1.1 0.1
v 0.1 -1.1 -0.1
v -0.1 -1.1 -0.1
v 0.1 -1.1 -0.2
v -0.2 -1.1 -0.2
v 0.1 -0.6 -0.2
v -0.2 -0.6 -0.2
v 0.1 -0.6 -0.3
v -0.2 -0.6 -0.3
v 0.1 0 0.1
v -0.1 0 0.1
v -0.2 0 0.1
v 0.1 0 -0.1
v 0 0 -0.1
v -0.1 0 -0.1
v 0 0 -0.2
v -0.1 0 -0.2
v 0.1 0 -0.3
v -0.2 0 -0.3

# faces
f 1/3/1 2/3/1 4/3/1
f 2/2/1 3/2/1 5/2/1
f 4/3/1 2/3/1 5/3/1
f 5/2/1 3/2/1 6/2/1
f 4/4/1 5/4/1 7/4/1
f 5/4/1 6/4/1 7/4/1
f 4/4/1 7/4/1 9/4/1
f 7/4/1 8/4/1 9/4/1
f 9/4/1 8/4/1 10/4/1
f 10/4/1 8/4/1 11/4/1
f 9/3/1 10/3/1 12/3/1
f 10/1/1 11/1/1 13/1/1
f 12/3/1 10/3/1 13/3/1
f 13/1/1 11/1/1 14/1/1
f 17/2/2 16/2/2 15/2/2
f 18/2/2 16/2/2 17/2/2
f 19/4/2 18/4/2 17/4/2
f 21/4/2 19/4/2 17/4/2
f 21/4/2 20/4/2 19/4/2
f 22/4/2 20/4/2 21/4/2
f 23/1/2 22/1/2 21/1/2
f 24/1/2 22/1/2 23/1/2
f 25/3/3 26/3/3 29/3/3
f 26/4/3 27/4/3 29/4/3
f 27/3/3 28/3/3 30/3/3
f 29/4/3 27/4/3 30/4/3
f 25/3/3 29/3/3 31/3/3
f 29/1/3 30/1/3 32/1/3
f 31/3/3 29/3/3 32/3/3
f 30/3/3 28/3/3 33/3/3
f 32/1/3 30/1/3 33/1/3
f 33/3/3 28/3/3 34/3/3
f 31/2/3 32/2/3 35/2/3
f 32/4/3 33/4/3 36/4/3
f 35/2/3 32/2/3 36/2/3
f 33/1/3 34/1/3 37/1/3
f 36/4/3 33/4/3 37/4/3
f 37/1/3 34/1/3 38/1/3
f 42/2/4 40/2/4 39/2/4
f 43/4/4 41/4/4 40/4/4
f 43/2/4 40/2/4 42/2/4
f 44/4/4 41/4/4 43/4/4
f 48/4/4 46/4/4 45/4/4
f 49/1/4 47/1/4 46/1/4
f 49/4/4 46/4/4 48/4/4
f 50/1/4 47/1/4 49/1/4
f 51/3/5 52/3/5 54/3/5
f 52/2/5 53/2/5 55/2/5
f 54/3/5 52/3/5 55/3/5
f 54/2/5 55/2/5 56/2/5
f 55/2/5 53/2/5 57/2/5
f 56/2/5 55/2/5 57/2/5
f 58/4/5 59/4/5 60/4/5
f 60/4/5 59/4/5 61/4/5
f 65/3/6 63/3/6 62/3/6
f 66/3/6 63/3/6 65/3/6
f 67/1/6 64/1/6 63/1/6
f 67/3/6 63/3/6 66/3/6
f 68/1/6 66/1/6 65/1/6
f 68/4/6 67/4/6 66/4/6
f 69/1/6 64/1/6 67/1/6
f 69/4/6 67/4/6 68/4/6
f 70/1/6 68/1/6 65/1/6
f 70/1/6 69/1/6 68/1/6
f 71/1/6 64/1/6 69/1/6
f 71/1/6 69/1/6 70/1/6
