# MagicaVoxel @ Ephtracy

# group
o 

# material
mtllib head.mtl
usemtl palette

# normals
vn -1 0 0
vn 1 0 0
vn 0 0 1
vn 0 0 -1
vn 0 -1 0
vn 0 1 0

# texcoords
vt 0.00195313 0.5
vt 0.00585938 0.5
vt 0.0136719 0.5
vt 0.0214844 0.5
vt 0.0253906 0.5

# verts
v -0.5 0.4 0.2
v -0.5 0.4 -0.3
v -0.5 0.7 0.5
v -0.5 0.7 0.2
v -0.5 1 0.5
v -0.5 1 -0.3
v -0.4 0.2 0.4
v -0.4 0.2 -0.3
v -0.4 0.3 0.5
v -0.4 0.3 0.4
v -0.4 0.4 0.2
v -0.4 0.4 -0.3
v -0.4 0.4 -0.4
v -0.4 0.6 0.5
v -0.4 0.6 0.4
v -0.4 0.7 0.5
v -0.4 0.7 0.4
v -0.4 0.7 0.2
v -0.4 1 0.4
v -0.4 1 -0.3
v -0.4 1 -0.4
v -0.4 1.1 0.4
v -0.4 1.1 -0.3
v -0.3 0.1 0.5
v -0.3 0.1 -0.3
v -0.3 0.2 0.4
v -0.3 0.2 -0.3
v -0.3 0.3 0.5
v -0.3 0.3 0.4
v -0.3 1 0.5
v -0.3 1 0.4
v -0.3 1.1 0.5
v -0.3 1.1 0.4
v -0.2 0 0.2
v -0.2 0 -0.2
v -0.2 0.1 0.2
v -0.2 0.1 -0.2
v -0.1 0.5 0.6
v -0.1 0.5 0.5
v -0.1 0.6 0.6
v -0.1 0.6 0.5
v 0.1 0.5 0.6
v 0.1 0.5 0.5
v 0.1 0.6 0.6
v 0.1 0.6 0.5
v 0.2 0 0.2
v 0.2 0 -0.2
v 0.2 0.1 0.2
v 0.2 0.1 -0.2
v 0.3 0.1 0.5
v 0.3 0.1 -0.3
v 0.3 0.2 0.4
v 0.3 0.2 -0.3
v 0.3 0.3 0.5
v 0.3 0.3 0.4
v 0.3 1 0.5
v 0.3 1 0.4
v 0.3 1.1 0.5
v 0.3 1.1 0.4
v 0.4 0.2 0.4
v 0.4 0.2 -0.3
v 0.4 0.3 0.5
v 0.4 0.3 0.4
v 0.4 0.4 0.2
v 0.4 0.4 -0.3
v 0.4 0.4 -0.4
v 0.4 0.6 0.5
v 0.4 0.6 0.4
v 0.4 0.7 0.5
v 0.4 0.7 0.4
v 0.4 0.7 0.2
v 0.4 1 0.4
v 0.4 1 -0.3
v 0.4 1 -0.4
v 0.4 1.1 0.4
v 0.4 1.1 -0.3
v 0.5 0.4 0.2
v 0.5 0.4 -0.3
v 0.5 0.7 0.5
v 0.5 0.7 0.2
v 0.5 1 0.5
v 0.5 1 -0.3
v -0.1 0.5 0.6
v -0.1 0.6 0.6
v 0.1 0.5 0.6
v 0.1 0.6 0.6
v -0.5 0.7 0.5
v -0.5 1 0.5
v -0.4 0.3 0.5
v -0.4 0.6 0.5
v -0.4 0.7 0.5
v -0.4 0.8 0.5
v -0.4 0.9 0.5
v -0.3 0.1 0.5
v -0.3 0.3 0.5
v -0.3 0.6 0.5
v -0.3 0.7 0.5
v -0.3 1 0.5
v -0.3 1.1 0.5
v -0.2 0.6 0.5
v -0.2 0.7 0.5
v -0.1 0.2 0.5
v -0.1 0.3 0.5
v -0.1 0.5 0.5
v -0.1 0.6 0.5
v -0.1 0.8 0.5
v 0.1 0.2 0.5
v 0.1 0.3 0.5
v 0.1 0.5 0.5
v 0.1 0.6 0.5
v 0.1 0.8 0.5
v 0.2 0.6 0.5
v 0.2 0.7 0.5
v 0.3 0.1 0.5
v 0.3 0.3 0.5
v 0.3 0.6 0.5
v 0.3 0.7 0.5
v 0.3 1 0.5
v 0.3 1.1 0.5
v 0.4 0.3 0.5
v 0.4 0.6 0.5
v 0.4 0.7 0.5
v 0.4 0.8 0.5
v 0.4 0.9 0.5
v 0.5 0.7 0.5
v 0.5 1 0.5
v -0.4 0.2 0.4
v -0.4 0.3 0.4
v -0.4 1 0.4
v -0.4 1.1 0.4
v -0.3 0.2 0.4
v -0.3 0.3 0.4
v -0.3 1 0.4
v -0.3 1.1 0.4
v 0.3 0.2 0.4
v 0.3 0.3 0.4
v 0.3 1 0.4
v 0.3 1.1 0.4
v 0.4 0.2 0.4
v 0.4 0.3 0.4
v 0.4 1 0.4
v 0.4 1.1 0.4
v -0.5 0.4 0.2
v -0.5 0.7 0.2
v -0.4 0.4 0.2
v -0.4 0.7 0.2
v -0.2 0 0.2
v -0.2 0.1 0.2
v 0.2 0 0.2
v 0.2 0.1 0.2
v 0.4 0.4 0.2
v 0.4 0.7 0.2
v 0.5 0.4 0.2
v 0.5 0.7 0.2
v -0.2 0 -0.2
v -0.2 0.1 -0.2
v 0.2 0 -0.2
v 0.2 0.1 -0.2
v -0.5 0.4 -0.3
v -0.5 1 -0.3
v -0.4 0.2 -0.3
v -0.4 0.4 -0.3
v -0.4 1 -0.3
v -0.4 1.1 -0.3
v -0.3 0.1 -0.3
v -0.3 0.2 -0.3
v 0.3 0.1 -0.3
v 0.3 0.2 -0.3
v 0.4 0.2 -0.3
v 0.4 0.4 -0.3
v 0.4 1 -0.3
v 0.4 1.1 -0.3
v 0.5 0.4 -0.3
v 0.5 1 -0.3
v -0.4 0.4 -0.4
v -0.4 1 -0.4
v 0.4 0.4 -0.4
v 0.4 1 -0.4
v -0.2 0 0.2
v 0.2 0 0.2
v -0.2 0 -0.2
v 0.2 0 -0.2
v -0.3 0.1 0.5
v 0.3 0.1 0.5
v -0.2 0.1 0.2
v 0.2 0.1 0.2
v -0.2 0.1 -0.2
v 0.2 0.1 -0.2
v -0.3 0.1 -0.3
v 0.3 0.1 -0.3
v -0.4 0.2 0.4
v -0.3 0.2 0.4
v 0.3 0.2 0.4
v 0.4 0.2 0.4
v -0.4 0.2 -0.3
v -0.3 0.2 -0.3
v 0.3 0.2 -0.3
v 0.4 0.2 -0.3
v -0.4 0.3 0.5
v -0.3 0.3 0.5
v 0.3 0.3 0.5
v 0.4 0.3 0.5
v -0.4 0.3 0.4
v -0.3 0.3 0.4
v 0.3 0.3 0.4
v 0.4 0.3 0.4
v -0.5 0.4 0.2
v -0.4 0.4 0.2
v 0.4 0.4 0.2
v 0.5 0.4 0.2
v -0.5 0.4 -0.3
v -0.4 0.4 -0.3
v 0.4 0.4 -0.3
v 0.5 0.4 -0.3
v -0.4 0.4 -0.4
v 0.4 0.4 -0.4
v -0.1 0.5 0.6
v 0.1 0.5 0.6
v -0.1 0.5 0.5
v 0.1 0.5 0.5
v -0.5 0.7 0.5
v -0.4 0.7 0.5
v 0.4 0.7 0.5
v 0.5 0.7 0.5
v -0.4 0.7 0.4
v 0.4 0.7 0.4
v -0.5 0.7 0.2
v -0.4 0.7 0.2
v 0.4 0.7 0.2
v 0.5 0.7 0.2
v -0.1 0.6 0.6
v 0.1 0.6 0.6
v -0.1 0.6 0.5
v 0.1 0.6 0.5
v -0.5 1 0.5
v -0.3 1 0.5
v 0.3 1 0.5
v 0.5 1 0.5
v -0.4 1 0.4
v -0.3 1 0.4
v 0.3 1 0.4
v 0.4 1 0.4
v -0.5 1 -0.3
v -0.4 1 -0.3
v 0.4 1 -0.3
v 0.5 1 -0.3
v -0.4 1 -0.4
v 0.4 1 -0.4
v -0.3 1.1 0.5
v 0.3 1.1 0.5
v -0.4 1.1 0.4
v -0.3 1.1 0.4
v 0.3 1.1 0.4
v 0.4 1.1 0.4
v -0.4 1.1 -0.3
v 0.4 1.1 -0.3

# faces
f 4/4/1 2/4/1 1/4/1
f 5/4/1 4/4/1 3/4/1
f 6/4/1 2/4/1 4/4/1
f 6/4/1 4/4/1 5/4/1
f 10/5/1 8/5/1 7/5/1
f 11/5/1 8/5/1 10/5/1
f 11/5/1 10/5/1 9/5/1
f 12/5/1 8/5/1 11/5/1
f 14/5/1 11/5/1 9/5/1
f 15/5/1 11/5/1 14/5/1
f 16/2/1 15/2/1 14/2/1
f 17/5/1 11/5/1 15/5/1
f 17/2/1 15/2/1 16/2/1
f 18/5/1 11/5/1 17/5/1
f 20/4/1 13/4/1 12/4/1
f 21/4/1 13/4/1 20/4/1
f 22/4/1 20/4/1 19/4/1
f 23/4/1 20/4/1 22/4/1
f 26/5/1 25/5/1 24/5/1
f 27/5/1 25/5/1 26/5/1
f 28/5/1 26/5/1 24/5/1
f 29/5/1 26/5/1 28/5/1
f 32/4/1 31/4/1 30/4/1
f 33/4/1 31/4/1 32/4/1
f 36/5/1 35/5/1 34/5/1
f 37/5/1 35/5/1 36/5/1
f 40/5/1 39/5/1 38/5/1
f 41/5/1 39/5/1 40/5/1
f 42/5/2 43/5/2 44/5/2
f 44/5/2 43/5/2 45/5/2
f 46/5/2 47/5/2 48/5/2
f 48/5/2 47/5/2 49/5/2
f 50/5/2 51/5/2 52/5/2
f 52/5/2 51/5/2 53/5/2
f 50/5/2 52/5/2 54/5/2
f 54/5/2 52/5/2 55/5/2
f 56/4/2 57/4/2 58/4/2
f 58/4/2 57/4/2 59/4/2
f 60/5/2 61/5/2 63/5/2
f 63/5/2 61/5/2 64/5/2
f 62/5/2 63/5/2 64/5/2
f 64/5/2 61/5/2 65/5/2
f 62/5/2 64/5/2 67/5/2
f 67/5/2 64/5/2 68/5/2
f 67/2/2 68/2/2 69/2/2
f 68/5/2 64/5/2 70/5/2
f 69/2/2 68/2/2 70/2/2
f 70/5/2 64/5/2 71/5/2
f 65/4/2 66/4/2 73/4/2
f 73/4/2 66/4/2 74/4/2
f 72/4/2 73/4/2 75/4/2
f 75/4/2 73/4/2 76/4/2
f 77/4/2 78/4/2 80/4/2
f 79/4/2 80/4/2 81/4/2
f 80/4/2 78/4/2 82/4/2
f 81/4/2 80/4/2 82/4/2
f 85/5/3 84/5/3 83/5/3
f 86/5/3 84/5/3 85/5/3
f 91/4/3 88/4/3 87/4/3
f 92/4/3 88/4/3 91/4/3
f 93/4/3 88/4/3 92/4/3
f 95/5/3 90/5/3 89/5/3
f 96/2/3 91/2/3 90/2/3
f 96/2/3 92/2/3 91/2/3
f 96/5/3 90/5/3 95/5/3
f 97/2/3 92/2/3 96/2/3
f 98/4/3 88/4/3 93/4/3
f 100/5/3 95/5/3 94/5/3
f 100/5/3 96/5/3 95/5/3
f 100/1/3 97/1/3 96/1/3
f 101/2/3 92/2/3 97/2/3
f 101/1/3 97/1/3 100/1/3
f 102/5/3 100/5/3 94/5/3
f 103/5/3 100/5/3 102/5/3
f 104/5/3 100/5/3 103/5/3
f 105/2/3 101/2/3 100/2/3
f 105/5/3 100/5/3 104/5/3
f 106/2/3 92/2/3 101/2/3
f 106/2/3 101/2/3 105/2/3
f 106/1/3 93/1/3 92/1/3
f 107/3/3 103/3/3 102/3/3
f 107/5/3 102/5/3 94/5/3
f 108/5/3 104/5/3 103/5/3
f 108/3/3 103/3/3 107/3/3
f 109/5/3 104/5/3 108/5/3
f 110/5/3 106/5/3 105/5/3
f 111/1/3 93/1/3 106/1/3
f 111/5/3 106/5/3 110/5/3
f 112/5/3 110/5/3 109/5/3
f 112/5/3 109/5/3 108/5/3
f 112/2/3 111/2/3 110/2/3
f 112/5/3 108/5/3 107/5/3
f 113/2/3 111/2/3 112/2/3
f 114/5/3 107/5/3 94/5/3
f 114/5/3 112/5/3 107/5/3
f 115/5/3 112/5/3 114/5/3
f 116/1/3 113/1/3 112/1/3
f 116/5/3 112/5/3 115/5/3
f 117/2/3 111/2/3 113/2/3
f 117/1/3 113/1/3 116/1/3
f 118/4/3 99/4/3 98/4/3
f 118/4/3 98/4/3 93/4/3
f 119/4/3 99/4/3 118/4/3
f 120/5/3 116/5/3 115/5/3
f 121/2/3 117/2/3 116/2/3
f 121/5/3 116/5/3 120/5/3
f 122/2/3 111/2/3 117/2/3
f 122/2/3 117/2/3 121/2/3
f 123/1/3 93/1/3 111/1/3
f 123/2/3 111/2/3 122/2/3
f 124/4/3 118/4/3 93/4/3
f 124/1/3 93/1/3 123/1/3
f 125/4/3 124/4/3 123/4/3
f 125/4/3 123/4/3 122/4/3
f 126/4/3 118/4/3 124/4/3
f 126/4/3 124/4/3 125/4/3
f 131/5/3 128/5/3 127/5/3
f 132/5/3 128/5/3 131/5/3
f 133/4/3 130/4/3 129/4/3
f 134/4/3 130/4/3 133/4/3
f 139/5/3 136/5/3 135/5/3
f 140/5/3 136/5/3 139/5/3
f 141/4/3 138/4/3 137/4/3
f 142/4/3 138/4/3 141/4/3
f 145/4/3 144/4/3 143/4/3
f 146/4/3 144/4/3 145/4/3
f 149/5/3 148/5/3 147/5/3
f 150/5/3 148/5/3 149/5/3
f 153/4/3 152/4/3 151/4/3
f 154/4/3 152/4/3 153/4/3
f 155/5/4 156/5/4 157/5/4
f 157/5/4 156/5/4 158/5/4
f 159/4/4 160/4/4 162/4/4
f 162/4/4 160/4/4 163/4/4
f 161/5/4 162/5/4 166/5/4
f 165/5/4 166/5/4 167/5/4
f 166/5/4 162/5/4 168/5/4
f 167/5/4 166/5/4 168/5/4
f 168/5/4 162/5/4 169/5/4
f 169/5/4 162/5/4 170/5/4
f 163/4/4 164/4/4 171/4/4
f 171/4/4 164/4/4 172/4/4
f 170/4/4 171/4/4 173/4/4
f 173/4/4 171/4/4 174/4/4
f 175/4/4 176/4/4 177/4/4
f 177/4/4 176/4/4 178/4/4
f 181/5/5 180/5/5 179/5/5
f 182/5/5 180/5/5 181/5/5
f 185/5/5 184/5/5 183/5/5
f 186/5/5 184/5/5 185/5/5
f 187/5/5 185/5/5 183/5/5
f 188/5/5 184/5/5 186/5/5
f 189/5/5 187/5/5 183/5/5
f 189/5/5 188/5/5 187/5/5
f 190/5/5 184/5/5 188/5/5
f 190/5/5 188/5/5 189/5/5
f 195/5/5 192/5/5 191/5/5
f 196/5/5 192/5/5 195/5/5
f 197/5/5 194/5/5 193/5/5
f 198/5/5 194/5/5 197/5/5
f 203/5/5 200/5/5 199/5/5
f 204/5/5 200/5/5 203/5/5
f 205/5/5 202/5/5 201/5/5
f 206/5/5 202/5/5 205/5/5
f 211/4/5 208/4/5 207/4/5
f 212/4/5 208/4/5 211/4/5
f 213/4/5 210/4/5 209/4/5
f 214/4/5 210/4/5 213/4/5
f 215/4/5 213/4/5 212/4/5
f 216/4/5 213/4/5 215/4/5
f 219/5/5 218/5/5 217/5/5
f 220/5/5 218/5/5 219/5/5
f 225/4/5 222/4/5 221/4/5
f 226/4/5 224/4/5 223/4/5
f 227/4/5 225/4/5 221/4/5
f 228/4/5 225/4/5 227/4/5
f 229/4/5 224/4/5 226/4/5
f 230/4/5 224/4/5 229/4/5
f 231/5/6 232/5/6 233/5/6
f 233/5/6 232/5/6 234/5/6
f 235/4/6 236/4/6 239/4/6
f 239/4/6 236/4/6 240/4/6
f 237/4/6 238/4/6 241/4/6
f 241/4/6 238/4/6 242/4/6
f 235/4/6 239/4/6 243/4/6
f 243/4/6 239/4/6 244/4/6
f 242/4/6 238/4/6 245/4/6
f 245/4/6 238/4/6 246/4/6
f 244/4/6 245/4/6 247/4/6
f 247/4/6 245/4/6 248/4/6
f 249/4/6 250/4/6 252/4/6
f 252/4/6 250/4/6 253/4/6
f 251/4/6 252/4/6 255/4/6
f 253/4/6 254/4/6 255/4/6
f 252/4/6 253/4/6 255/4/6
f 255/4/6 254/4/6 256/4/6
