# MagicaVoxel @ Ephtracy

# group
o 

# material
mtllib leg-left-lower.mtl
usemtl palette

# normals
vn 1 0 0
vn -1 0 0
vn 0 0 1
vn 0 0 -1
vn 0 -1 0
vn 0 1 0

# texcoords
vt 0.00585938 0.5
vt 0.0214844 0.5

# verts
v 0.2 -1.1 0.1
v 0.2 -1.1 0
v 0.2 -1.1 -0.1
v 0.2 -1.1 -0.2
v 0.2 -0.6 -0.2
v 0.2 -0.6 -0.3
v 0.2 0 0.1
v 0.2 0 0
v 0.2 0 -0.1
v 0.2 0 -0.2
v 0.2 0 -0.3
v -0.1 -1.1 0.1
v -0.1 -1.1 -0.2
v -0.1 -0.6 -0.2
v -0.1 -0.6 -0.3
v -0.1 0 0.1
v -0.1 0 -0.3
v 0.2 -1.1 0.1
v 0.2 0 0.1
v 0.1 -1.1 0.1
v 0.1 0 0.1
v -0.1 -1.1 0.1
v -0.1 0 0.1
v 0.2 -1.1 -0.2
v 0.2 -0.6 -0.2
v 0.1 -1.1 -0.2
v 0.1 -0.6 -0.2
v -0.1 -1.1 -0.2
v -0.1 -0.6 -0.2
v 0.2 -0.6 -0.3
v 0.2 0 -0.3
v -0.1 -0.6 -0.3
v -0.1 0 -0.3
v 0.2 -1.1 0.1
v 0.1 -1.1 0.1
v -0.1 -1.1 0.1
v 0.2 -1.1 0
v 0.1 -1.1 0
v 0.2 -1.1 -0.1
v 0.1 -1.1 -0.1
v 0.2 -1.1 -0.2
v 0.1 -1.1 -0.2
v -0.1 -1.1 -0.2
v 0.2 -0.6 -0.2
v 0.1 -0.6 -0.2
v -0.1 -0.6 -0.2
v 0.2 -0.6 -0.3
v -0.1 -0.6 -0.3
v 0.2 0 0.1
v 0.1 0 0.1
v -0.1 0 0.1
v 0.2 0 0
v 0.1 0 0
v 0.2 0 -0.1
v 0.1 0 -0.1
v 0.2 0 -0.2
v 0.1 0 -0.2
v 0.2 0 -0.3
v -0.1 0 -0.3

# faces
f 3/1/1 4/1/1 5/1/1
f 1/1/1 2/1/1 7/1/1
f 2/2/1 3/2/1 8/2/1
f 7/1/1 2/1/1 8/1/1
f 3/1/1 5/1/1 9/1/1
f 8/2/1 3/2/1 9/2/1
f 5/2/1 6/2/1 10/2/1
f 9/1/1 5/1/1 10/1/1
f 10/2/1 6/2/1 11/2/1
f 14/2/2 13/2/2 12/2/2
f 16/2/2 14/2/2 12/2/2
f 16/2/2 15/2/2 14/2/2
f 17/2/2 15/2/2 16/2/2
f 18/1/3 19/1/3 20/1/3
f 20/1/3 19/1/3 21/1/3
f 20/2/3 21/2/3 22/2/3
f 22/2/3 21/2/3 23/2/3
f 26/1/4 25/1/4 24/1/4
f 27/1/4 25/1/4 26/1/4
f 28/2/4 27/2/4 26/2/4
f 29/2/4 27/2/4 28/2/4
f 32/2/4 31/2/4 30/2/4
f 33/2/4 31/2/4 32/2/4
f 34/1/5 35/1/5 37/1/5
f 35/2/5 36/2/5 38/2/5
f 37/1/5 35/1/5 38/1/5
f 37/2/5 38/2/5 39/2/5
f 38/2/5 36/2/5 40/2/5
f 39/2/5 38/2/5 40/2/5
f 39/1/5 40/1/5 41/1/5
f 40/2/5 36/2/5 42/2/5
f 41/1/5 40/1/5 42/1/5
f 42/2/5 36/2/5 43/2/5
f 44/2/5 45/2/5 47/2/5
f 45/2/5 46/2/5 47/2/5
f 47/2/5 46/2/5 48/2/5
f 52/1/6 50/1/6 49/1/6
f 53/2/6 51/2/6 50/2/6
f 53/1/6 50/1/6 52/1/6
f 54/2/6 53/2/6 52/2/6
f 55/2/6 51/2/6 53/2/6
f 55/2/6 53/2/6 54/2/6
f 56/1/6 55/1/6 54/1/6
f 57/2/6 51/2/6 55/2/6
f 57/1/6 55/1/6 56/1/6
f 58/2/6 57/2/6 56/2/6
f 59/2/6 51/2/6 57/2/6
f 59/2/6 57/2/6 58/2/6
