# Blender v2.90.1 OBJ File: 'GrassPreset01.blend'
# www.blender.org
mtllib GrassPreset02.mtl
o ObjObject.005_ObjObject.006
v -2.930216 -0.074626 -2.955422
v -2.994295 0.000000 -2.973444
v -2.620943 0.388694 -2.691442
v -2.585547 0.396581 -2.784635
v -2.965611 -0.082513 -2.862229
v -2.556863 0.314068 -2.673419
v -3.029691 -0.007887 -2.880251
v -2.521468 0.321955 -2.766613
v -2.991561 0.038213 -2.865049
v -3.048227 -0.038255 -2.895736
v -3.541255 0.292891 -2.810497
v -2.985488 0.071479 -2.959158
v -3.478516 0.402625 -2.873919
v -3.042154 -0.004989 -2.989845
v -3.535182 0.326157 -2.904606
v -3.484589 0.369359 -2.779810
v -3.235850 0.277924 -3.411963
v -3.187902 0.356939 -3.373785
v -3.064186 -0.057108 -2.934171
v -3.016238 0.021906 -2.895993
v -3.313174 0.295391 -3.351004
v -2.938915 0.004439 -2.956952
v -3.265225 0.374406 -3.312825
v -2.986863 -0.074576 -2.995131
v -2.616801 0.312959 -3.314162
v -2.737929 0.355578 -3.373421
v -2.673705 0.280698 -3.389800
v -2.924923 -0.034433 -2.934189
v -2.989147 0.040447 -2.917809
v -3.046051 0.008186 -2.993448
v -2.981827 -0.066694 -3.009827
v -2.681025 0.387839 -3.297783
v -3.019652 0.395014 -2.486978
v -3.005266 0.318295 -2.424469
v -3.117745 0.375614 -2.488211
v -3.024924 -0.067935 -2.893980
v -3.103358 0.298896 -2.425703
v -2.926832 -0.048535 -2.892746
v -3.039311 0.008784 -2.956488
v -2.941218 0.028183 -2.955255
vt 0.080078 0.500000
vt 0.080078 0.500000
vt 0.080078 0.500000
vt 0.080078 0.500000
vt 0.080078 0.500000
vt 0.080078 0.500000
vt 0.080078 0.500000
vt 0.080078 0.500000
vt 0.080078 0.500000
vt 0.080078 0.500000
vt 0.080078 0.500000
vt 0.080078 0.500000
vt 0.080078 0.500000
vt 0.080078 0.500000
vt 0.080078 0.500000
vt 0.080078 0.500000
vt 0.080078 0.500000
vt 0.080078 0.500000
vt 0.080078 0.500000
vt 0.080078 0.500000
vt 0.080078 0.500000
vt 0.080078 0.500000
vt 0.080078 0.500000
vt 0.080078 0.500000
vt 0.080078 0.500000
vt 0.080078 0.500000
vt 0.080078 0.500000
vt 0.080078 0.500000
vt 0.080078 0.500000
vt 0.080078 0.500000
vt 0.080078 0.500000
vt 0.080078 0.500000
vt 0.080078 0.500000
vt 0.080078 0.500000
vt 0.080078 0.500000
vt 0.080078 0.500000
vt 0.080078 0.500000
vt 0.080078 0.500000
vt 0.080078 0.500000
vt 0.080078 0.500000
vn 0.3540 0.0789 -0.9319
vn -0.3540 -0.0789 0.9319
vn -0.6408 0.7463 -0.1802
vn 0.6408 -0.7463 0.1802
vn -0.6812 -0.6610 -0.3147
vn 0.6812 0.6610 0.3147
vn 0.0607 0.3327 -0.9411
vn -0.0607 -0.3327 0.9411
vn -0.5667 -0.7647 -0.3069
vn 0.5667 0.7647 0.3069
vn 0.8217 -0.5519 -0.1421
vn -0.8217 0.5519 0.1421
vn 0.7732 -0.1747 -0.6096
vn -0.7732 0.1747 0.6096
vn -0.4795 -0.7901 -0.3818
vn 0.4795 0.7901 0.3818
vn 0.4150 -0.5875 0.6947
vn -0.4150 0.5875 -0.6947
vn 0.6422 -0.7488 -0.1638
vn -0.6422 0.7488 0.1638
vn -0.5690 -0.3226 -0.7564
vn 0.5690 0.3226 0.7564
vn -0.5135 -0.5790 0.6333
vn 0.5135 0.5790 -0.6333
vn 0.9809 0.1940 0.0123
vn -0.9809 -0.1940 -0.0123
vn -0.1439 0.7672 -0.6251
vn 0.1439 -0.7672 0.6251
vn 0.1307 -0.6114 -0.7805
vn -0.1307 0.6114 0.7805
usemtl palette.017
s 1
f 4/1/1 1/2/1 2/3/1
f 8/4/1 1/2/1 4/1/1
f 7/5/2 5/6/2 3/7/2
f 3/7/2 5/6/2 6/8/2
f 7/5/3 4/1/3 2/3/3
f 3/7/3 4/1/3 7/5/3
f 1/2/4 8/4/4 5/6/4
f 5/6/4 8/4/4 6/8/4
f 1/2/5 7/5/5 2/3/5
f 5/6/5 7/5/5 1/2/5
f 4/1/6 3/7/6 8/4/6
f 8/4/6 3/7/6 6/8/6
usemtl palette.005
f 15/9/7 12/10/7 14/11/7
f 13/12/7 12/10/7 15/9/7
f 10/13/8 9/14/8 11/15/8
f 11/15/8 9/14/8 16/16/8
f 10/13/9 15/9/9 14/11/9
f 11/15/9 15/9/9 10/13/9
f 12/10/10 13/12/10 9/14/10
f 9/14/10 13/12/10 16/16/10
f 12/10/11 10/13/11 14/11/11
f 9/14/11 10/13/11 12/10/11
f 15/9/12 11/15/12 13/12/12
f 13/12/12 11/15/12 16/16/12
usemtl palette.006
f 17/17/13 22/18/13 24/19/13
f 18/20/13 22/18/13 17/17/13
f 19/21/14 20/22/14 21/23/14
f 21/23/14 20/22/14 23/24/14
f 19/21/15 17/17/15 24/19/15
f 21/23/15 17/17/15 19/21/15
f 22/18/16 18/20/16 20/22/16
f 20/22/16 18/20/16 23/24/16
f 22/18/17 19/21/17 24/19/17
f 20/22/17 19/21/17 22/18/17
f 17/17/18 21/23/18 18/20/18
f 18/20/18 21/23/18 23/24/18
usemtl palette.015
f 27/25/19 28/26/19 31/27/19
f 25/28/19 28/26/19 27/25/19
f 30/29/20 29/30/20 26/31/20
f 26/31/20 29/30/20 32/32/20
f 30/29/21 27/25/21 31/27/21
f 26/31/21 27/25/21 30/29/21
f 28/26/22 25/28/22 29/30/22
f 29/30/22 25/28/22 32/32/22
f 28/26/23 30/29/23 31/27/23
f 29/30/23 30/29/23 28/26/23
f 27/25/24 26/31/24 25/28/24
f 25/28/24 26/31/24 32/32/24
usemtl palette.016
f 33/33/25 38/34/25 40/35/25
f 34/36/25 38/34/25 33/33/25
f 39/37/26 36/38/26 35/39/26
f 35/39/26 36/38/26 37/40/26
f 39/37/27 33/33/27 40/35/27
f 35/39/27 33/33/27 39/37/27
f 38/34/28 34/36/28 36/38/28
f 36/38/28 34/36/28 37/40/28
f 38/34/29 39/37/29 40/35/29
f 36/38/29 39/37/29 38/34/29
f 33/33/30 35/39/30 34/36/30
f 34/36/30 35/39/30 37/40/30
o ObjObject.001_ObjObject.015
v -3.255936 -0.074626 3.451012
v -3.190644 -0.000000 3.438057
v -3.651231 0.388694 3.355737
v -3.640579 0.396581 3.454854
v -3.266589 -0.082513 3.351894
v -3.716524 0.314068 3.368692
v -3.201296 -0.007887 3.338939
v -3.705871 0.321955 3.467810
v -3.242176 0.038213 3.342656
v -3.177757 -0.038255 3.344349
v -2.776804 0.292891 3.045052
v -3.204966 0.071479 3.429309
v -2.804013 0.402625 3.130012
v -3.140547 -0.004989 3.431003
v -2.739594 0.326157 3.131705
v -2.841223 0.369359 3.043358
v -2.776670 0.277924 3.719613
v -2.836710 0.356939 3.707292
v -3.146119 -0.057108 3.371388
v -3.206160 0.021906 3.359066
v -2.735342 0.295391 3.630244
v -3.247488 0.004439 3.448436
v -2.795382 0.374406 3.617922
v -3.187447 -0.074576 3.460757
v -3.372880 0.312959 3.912799
v -3.238049 0.355578 3.910770
v -3.287889 0.280698 3.954462
v -3.270272 -0.034433 3.434479
v -3.220432 0.040447 3.390787
v -3.135441 0.008186 3.432450
v -3.185281 -0.066694 3.476141
v -3.323040 0.387839 3.869108
v -3.388367 0.395014 2.992862
v -3.429505 0.318295 2.943649
v -3.300354 0.375614 2.949534
v -3.199327 -0.067935 3.353338
v -3.341492 0.298896 2.900321
v -3.287340 -0.048535 3.396667
v -3.158190 0.008784 3.402551
v -3.246203 0.028183 3.445880
vt 0.080078 0.500000
vt 0.080078 0.500000
vt 0.080078 0.500000
vt 0.080078 0.500000
vt 0.080078 0.500000
vt 0.080078 0.500000
vt 0.080078 0.500000
vt 0.080078 0.500000
vt 0.080078 0.500000
vt 0.080078 0.500000
vt 0.080078 0.500000
vt 0.080078 0.500000
vt 0.080078 0.500000
vt 0.080078 0.500000
vt 0.080078 0.500000
vt 0.080078 0.500000
vt 0.080078 0.500000
vt 0.080078 0.500000
vt 0.080078 0.500000
vt 0.080078 0.500000
vt 0.080078 0.500000
vt 0.080078 0.500000
vt 0.080078 0.500000
vt 0.080078 0.500000
vt 0.080078 0.500000
vt 0.080078 0.500000
vt 0.080078 0.500000
vt 0.080078 0.500000
vt 0.080078 0.500000
vt 0.080078 0.500000
vt 0.080078 0.500000
vt 0.080078 0.500000
vt 0.080078 0.500000
vt 0.080078 0.500000
vt 0.080078 0.500000
vt 0.080078 0.500000
vt 0.080078 0.500000
vt 0.080078 0.500000
vt 0.080078 0.500000
vt 0.080078 0.500000
vn 0.1065 0.0789 0.9912
vn -0.1065 -0.0789 -0.9912
vn 0.6529 0.7463 -0.1296
vn -0.6529 -0.7463 0.1296
vn 0.7499 -0.6610 -0.0280
vn -0.7499 0.6610 0.0280
vn 0.3721 0.3327 0.8665
vn -0.3721 -0.3327 -0.8665
vn 0.6442 -0.7647 0.0169
vn -0.6442 0.7647 -0.0169
vn -0.6683 -0.5519 0.4988
vn 0.6683 0.5519 -0.4988
vn -0.4133 -0.1747 0.8937
vn 0.4133 0.1747 -0.8937
vn 0.6004 -0.7901 0.1232
vn -0.6004 0.7901 -0.1232
vn -0.6846 -0.5875 -0.4314
vn 0.6846 0.5875 0.4314
vn -0.4984 -0.7488 0.4369
vn 0.4984 0.7488 -0.4369
vn 0.8499 -0.3226 0.4166
vn -0.8499 0.3226 -0.4166
vn 0.1710 -0.5790 -0.7972
vn -0.1710 0.5790 0.7972
vn -0.8801 0.1940 0.4333
vn 0.8801 -0.1940 -0.4333
vn 0.4114 0.7672 0.4921
vn -0.4114 -0.7672 -0.4921
vn 0.2369 -0.6114 0.7550
vn -0.2369 0.6114 -0.7550
usemtl palette.022
s 1
f 44/41/31 41/42/31 42/43/31
f 48/44/31 41/42/31 44/41/31
f 47/45/32 45/46/32 43/47/32
f 43/47/32 45/46/32 46/48/32
f 47/45/33 44/41/33 42/43/33
f 43/47/33 44/41/33 47/45/33
f 41/42/34 48/44/34 45/46/34
f 45/46/34 48/44/34 46/48/34
f 41/42/35 47/45/35 42/43/35
f 45/46/35 47/45/35 41/42/35
f 44/41/36 43/47/36 48/44/36
f 48/44/36 43/47/36 46/48/36
usemtl palette.021
f 55/49/37 52/50/37 54/51/37
f 53/52/37 52/50/37 55/49/37
f 50/53/38 49/54/38 51/55/38
f 51/55/38 49/54/38 56/56/38
f 50/53/39 55/49/39 54/51/39
f 51/55/39 55/49/39 50/53/39
f 52/50/40 53/52/40 49/54/40
f 49/54/40 53/52/40 56/56/40
f 52/50/41 50/53/41 54/51/41
f 49/54/41 50/53/41 52/50/41
f 55/49/42 51/55/42 53/52/42
f 53/52/42 51/55/42 56/56/42
usemtl palette.020
f 57/57/43 62/58/43 64/59/43
f 58/60/43 62/58/43 57/57/43
f 59/61/44 60/62/44 61/63/44
f 61/63/44 60/62/44 63/64/44
f 59/61/45 57/57/45 64/59/45
f 61/63/45 57/57/45 59/61/45
f 62/58/46 58/60/46 60/62/46
f 60/62/46 58/60/46 63/64/46
f 62/58/47 59/61/47 64/59/47
f 60/62/47 59/61/47 62/58/47
f 57/57/48 61/63/48 58/60/48
f 58/60/48 61/63/48 63/64/48
usemtl palette.019
f 67/65/49 68/66/49 71/67/49
f 65/68/49 68/66/49 67/65/49
f 70/69/50 69/70/50 66/71/50
f 66/71/50 69/70/50 72/72/50
f 70/69/51 67/65/51 71/67/51
f 66/71/51 67/65/51 70/69/51
f 68/66/52 65/68/52 69/70/52
f 69/70/52 65/68/52 72/72/52
f 68/66/53 70/69/53 71/67/53
f 69/70/53 70/69/53 68/66/53
f 67/65/54 66/71/54 65/68/54
f 65/68/54 66/71/54 72/72/54
usemtl palette.018
f 73/73/55 78/74/55 80/75/55
f 74/76/55 78/74/55 73/73/55
f 79/77/56 76/78/56 75/79/56
f 75/79/56 76/78/56 77/80/56
f 79/77/57 73/73/57 80/75/57
f 75/79/57 73/73/57 79/77/57
f 78/74/58 74/76/58 76/78/58
f 76/78/58 74/76/58 77/80/58
f 78/74/59 79/77/59 80/75/59
f 76/78/59 79/77/59 78/74/59
f 73/73/60 75/79/60 74/76/60
f 74/76/60 75/79/60 77/80/60
o ObjObject.002_ObjObject.016
v 3.584345 -0.074626 0.081273
v 3.580620 -0.000000 0.014812
v 3.434884 0.388694 0.459422
v 3.534519 0.396581 0.462694
v 3.484710 -0.082513 0.078002
v 3.438609 0.314068 0.525884
v 3.480985 -0.007887 0.011540
v 3.538244 0.321955 0.529155
v 3.478966 0.038213 0.052539
v 3.489625 -0.038255 -0.011015
v 3.249156 0.292891 -0.449782
v 3.569961 0.071479 0.027775
v 3.329492 0.402625 -0.410993
v 3.580620 -0.004989 -0.035779
v 3.340151 0.326157 -0.474546
v 3.238497 0.369359 -0.386229
v 3.917147 0.277924 -0.355860
v 3.896574 0.356939 -0.298124
v 3.520811 -0.057108 -0.038573
v 3.500238 0.021906 0.019163
v 3.834413 0.295391 -0.409245
v 3.582973 0.004439 0.072548
v 3.813840 0.374406 -0.351509
v 3.603545 -0.074576 0.014812
v 4.025316 0.312959 0.261462
v 4.042106 0.355578 0.127665
v 4.078422 0.280698 0.183111
v 3.565974 -0.034433 0.093164
v 3.529659 0.040447 0.037718
v 3.582765 0.008186 -0.040634
v 3.619080 -0.066694 0.014812
v 3.989001 0.387839 0.206017
v 3.112206 0.395014 0.148531
v 3.057738 0.318295 0.182405
v 3.081572 0.375614 0.055336
v 3.495518 -0.067935 0.011599
v 3.027104 0.298896 0.089210
v 3.526152 -0.048535 0.104793
v 3.549987 0.008784 -0.022275
v 3.580620 0.028183 0.070919
vt 0.080078 0.500000
vt 0.080078 0.500000
vt 0.080078 0.500000
vt 0.080078 0.500000
vt 0.080078 0.500000
vt 0.080078 0.500000
vt 0.080078 0.500000
vt 0.080078 0.500000
vt 0.080078 0.500000
vt 0.080078 0.500000
vt 0.080078 0.500000
vt 0.080078 0.500000
vt 0.080078 0.500000
vt 0.080078 0.500000
vt 0.080078 0.500000
vt 0.080078 0.500000
vt 0.080078 0.500000
vt 0.080078 0.500000
vt 0.080078 0.500000
vt 0.080078 0.500000
vt 0.080078 0.500000
vt 0.080078 0.500000
vt 0.080078 0.500000
vt 0.080078 0.500000
vt 0.080078 0.500000
vt 0.080078 0.500000
vt 0.080078 0.500000
vt 0.080078 0.500000
vt 0.080078 0.500000
vt 0.080078 0.500000
vt 0.080078 0.500000
vt 0.080078 0.500000
vt 0.080078 0.500000
vt 0.080078 0.500000
vt 0.080078 0.500000
vt 0.080078 0.500000
vt 0.080078 0.500000
vt 0.080078 0.500000
vt 0.080078 0.500000
vt 0.080078 0.500000
vn 0.9963 0.0789 0.0327
vn -0.9963 -0.0789 -0.0327
vn -0.0372 0.7463 -0.6646
vn 0.0372 -0.7463 0.6646
vn 0.0768 -0.6610 -0.7465
vn -0.0768 0.6610 0.7465
vn 0.9100 0.3327 -0.2476
vn -0.9100 -0.3327 0.2476
vn 0.1066 -0.7647 -0.6355
vn -0.1066 0.7647 0.6355
vn 0.4008 -0.5519 0.7313
vn -0.4008 0.5519 -0.7313
vn 0.8273 -0.1747 0.5338
vn -0.8273 0.1747 -0.5339
vn -0.8273 0.1747 -0.5338
vn 0.2057 -0.7901 -0.5774
vn -0.2057 0.7901 0.5774
vn -0.5227 -0.5875 0.6178
vn 0.5227 0.5875 -0.6178
vn 0.3632 -0.7488 0.5545
vn -0.3632 0.7488 -0.5545
vn 0.5311 -0.3226 -0.7835
vn -0.5311 0.3226 0.7835
vn -0.7656 -0.5790 -0.2805
vn 0.7656 0.5790 0.2805
vn 0.3063 0.1940 0.9319
vn -0.3063 -0.1940 -0.9319
vn 0.5447 0.7672 -0.3387
vn -0.5447 -0.7672 0.3387
vn 0.7807 -0.6114 -0.1294
vn -0.7807 0.6114 0.1294
usemtl palette.023
s 1
f 84/81/61 81/82/61 82/83/61
f 88/84/61 81/82/61 84/81/61
f 87/85/62 85/86/62 83/87/62
f 83/87/62 85/86/62 86/88/62
f 87/85/63 84/81/63 82/83/63
f 83/87/63 84/81/63 87/85/63
f 81/82/64 88/84/64 85/86/64
f 85/86/64 88/84/64 86/88/64
f 81/82/65 87/85/65 82/83/65
f 85/86/65 87/85/65 81/82/65
f 84/81/66 83/87/66 88/84/66
f 88/84/66 83/87/66 86/88/66
usemtl palette.027
f 95/89/67 92/90/67 94/91/67
f 93/92/67 92/90/67 95/89/67
f 90/93/68 89/94/68 91/95/68
f 91/95/68 89/94/68 96/96/68
f 90/93/69 95/89/69 94/91/69
f 91/95/69 95/89/69 90/93/69
f 92/90/70 93/92/70 89/94/70
f 89/94/70 93/92/70 96/96/70
f 92/90/71 90/93/71 94/91/71
f 89/94/71 90/93/71 92/90/71
f 95/89/72 91/95/72 93/92/72
f 93/92/72 91/95/72 96/96/72
usemtl palette.026
f 97/97/73 102/98/73 104/99/73
f 98/100/73 102/98/73 97/97/73
f 99/101/74 100/102/75 101/103/75
f 101/103/75 100/102/75 103/104/75
f 99/101/76 97/97/76 104/99/76
f 101/103/76 97/97/76 99/101/76
f 102/98/77 98/100/77 100/102/77
f 100/102/77 98/100/77 103/104/77
f 102/98/78 99/101/78 104/99/78
f 100/102/78 99/101/78 102/98/78
f 97/97/79 101/103/79 98/100/79
f 98/100/79 101/103/79 103/104/79
usemtl palette.025
f 107/105/80 108/106/80 111/107/80
f 105/108/80 108/106/80 107/105/80
f 110/109/81 109/110/81 106/111/81
f 106/111/81 109/110/81 112/112/81
f 110/109/82 107/105/82 111/107/82
f 106/111/82 107/105/82 110/109/82
f 108/106/83 105/108/83 109/110/83
f 109/110/83 105/108/83 112/112/83
f 108/106/84 110/109/84 111/107/84
f 109/110/84 110/109/84 108/106/84
f 107/105/85 106/111/85 105/108/85
f 105/108/85 106/111/85 112/112/85
usemtl palette.024
f 113/113/86 118/114/86 120/115/86
f 114/116/86 118/114/86 113/113/86
f 119/117/87 116/118/87 115/119/87
f 115/119/87 116/118/87 117/120/87
f 119/117/88 113/113/88 120/115/88
f 115/119/88 113/113/88 119/117/88
f 118/114/89 114/116/89 116/118/89
f 116/118/89 114/116/89 117/120/89
f 118/114/90 119/117/90 120/115/90
f 116/118/90 119/117/90 118/114/90
f 113/113/91 115/119/91 114/116/91
f 114/116/91 115/119/91 117/120/91
