# MagicaVoxel @ Ephtracy

# group
o 

# material
mtllib HillCornerOuter_001.mtl
usemtl palette

# normals
vn -1 0 0
vn 1 0 0
vn 0 0 1
vn 0 0 -1
vn 0 -1 0
vn 0 1 0

# texcoords
vt 0.0722656 0.5

# verts
v -1 0 1
v -1 0 -0.1
v -1 2 1
v -1 2 -0.1
v -0.9 0 -0.1
v -0.9 0 -0.2
v -0.9 2 -0.1
v -0.9 2 -0.2
v -0.8 0 -0.2
v -0.8 0 -0.3
v -0.8 2 -0.2
v -0.8 2 -0.3
v -0.7 0 -0.3
v -0.7 0 -0.4
v -0.7 2 -0.3
v -0.7 2 -0.4
v -0.6 0 -0.4
v -0.6 0 -0.5
v -0.6 2 -0.4
v -0.6 2 -0.5
v -0.5 0 -0.5
v -0.5 0 -0.6
v -0.5 2 -0.5
v -0.5 2 -0.6
v -0.4 0 -0.6
v -0.4 0 -0.7
v -0.4 2 -0.6
v -0.4 2 -0.7
v -0.3 0 -0.7
v -0.3 0 -0.8
v -0.3 2 -0.7
v -0.3 2 -0.8
v -0.2 0 -0.8
v -0.2 0 -0.9
v -0.2 2 -0.8
v -0.2 2 -0.9
v -0.1 0 -0.9
v -0.1 0 -1
v -0.1 2 -0.9
v -0.1 2 -1
v 1 0 1
v 1 0 -1
v 1 2 1
v 1 2 -1
v -1 0 1
v -1 2 1
v 1 0 1
v 1 2 1
v -1 0 -0.1
v -1 2 -0.1
v -0.9 0 -0.1
v -0.9 2 -0.1
v -0.9 0 -0.2
v -0.9 2 -0.2
v -0.8 0 -0.2
v -0.8 2 -0.2
v -0.8 0 -0.3
v -0.8 2 -0.3
v -0.7 0 -0.3
v -0.7 2 -0.3
v -0.7 0 -0.4
v -0.7 2 -0.4
v -0.6 0 -0.4
v -0.6 2 -0.4
v -0.6 0 -0.5
v -0.6 2 -0.5
v -0.5 0 -0.5
v -0.5 2 -0.5
v -0.5 0 -0.6
v -0.5 2 -0.6
v -0.4 0 -0.6
v -0.4 2 -0.6
v -0.4 0 -0.7
v -0.4 2 -0.7
v -0.3 0 -0.7
v -0.3 2 -0.7
v -0.3 0 -0.8
v -0.3 2 -0.8
v -0.2 0 -0.8
v -0.2 2 -0.8
v -0.2 0 -0.9
v -0.2 2 -0.9
v -0.1 0 -0.9
v -0.1 2 -0.9
v -0.1 0 -1
v -0.1 2 -1
v 1 0 -1
v 1 2 -1
v -1 0 1
v 1 0 1
v -1 0 -0.1
v -0.9 0 -0.1
v -0.9 0 -0.2
v -0.8 0 -0.2
v -0.8 0 -0.3
v -0.7 0 -0.3
v -0.7 0 -0.4
v -0.6 0 -0.4
v -0.6 0 -0.5
v -0.5 0 -0.5
v -0.5 0 -0.6
v -0.4 0 -0.6
v -0.4 0 -0.7
v -0.3 0 -0.7
v -0.3 0 -0.8
v -0.2 0 -0.8
v -0.2 0 -0.9
v -0.1 0 -0.9
v -0.1 0 -1
v 1 0 -1
v -1 2 1
v 1 2 1
v -1 2 -0.1
v -0.9 2 -0.1
v -0.9 2 -0.2
v -0.8 2 -0.2
v -0.8 2 -0.3
v -0.7 2 -0.3
v -0.7 2 -0.4
v -0.6 2 -0.4
v -0.6 2 -0.5
v -0.5 2 -0.5
v -0.5 2 -0.6
v -0.4 2 -0.6
v -0.4 2 -0.7
v -0.3 2 -0.7
v -0.3 2 -0.8
v -0.2 2 -0.8
v -0.2 2 -0.9
v -0.1 2 -0.9
v -0.1 2 -1
v 1 2 -1

# faces
f 3/1/1 2/1/1 1/1/1
f 4/1/1 2/1/1 3/1/1
f 7/1/1 6/1/1 5/1/1
f 8/1/1 6/1/1 7/1/1
f 11/1/1 10/1/1 9/1/1
f 12/1/1 10/1/1 11/1/1
f 15/1/1 14/1/1 13/1/1
f 16/1/1 14/1/1 15/1/1
f 19/1/1 18/1/1 17/1/1
f 20/1/1 18/1/1 19/1/1
f 23/1/1 22/1/1 21/1/1
f 24/1/1 22/1/1 23/1/1
f 27/1/1 26/1/1 25/1/1
f 28/1/1 26/1/1 27/1/1
f 31/1/1 30/1/1 29/1/1
f 32/1/1 30/1/1 31/1/1
f 35/1/1 34/1/1 33/1/1
f 36/1/1 34/1/1 35/1/1
f 39/1/1 38/1/1 37/1/1
f 40/1/1 38/1/1 39/1/1
f 41/1/2 42/1/2 43/1/2
f 43/1/2 42/1/2 44/1/2
f 47/1/3 46/1/3 45/1/3
f 48/1/3 46/1/3 47/1/3
f 49/1/4 50/1/4 51/1/4
f 51/1/4 50/1/4 52/1/4
f 53/1/4 54/1/4 55/1/4
f 55/1/4 54/1/4 56/1/4
f 57/1/4 58/1/4 59/1/4
f 59/1/4 58/1/4 60/1/4
f 61/1/4 62/1/4 63/1/4
f 63/1/4 62/1/4 64/1/4
f 65/1/4 66/1/4 67/1/4
f 67/1/4 66/1/4 68/1/4
f 69/1/4 70/1/4 71/1/4
f 71/1/4 70/1/4 72/1/4
f 73/1/4 74/1/4 75/1/4
f 75/1/4 74/1/4 76/1/4
f 77/1/4 78/1/4 79/1/4
f 79/1/4 78/1/4 80/1/4
f 81/1/4 82/1/4 83/1/4
f 83/1/4 82/1/4 84/1/4
f 85/1/4 86/1/4 87/1/4
f 87/1/4 86/1/4 88/1/4
f 91/1/5 90/1/5 89/1/5
f 92/1/5 90/1/5 91/1/5
f 93/1/5 90/1/5 92/1/5
f 94/1/5 90/1/5 93/1/5
f 95/1/5 90/1/5 94/1/5
f 96/1/5 90/1/5 95/1/5
f 97/1/5 90/1/5 96/1/5
f 98/1/5 90/1/5 97/1/5
f 99/1/5 90/1/5 98/1/5
f 100/1/5 90/1/5 99/1/5
f 101/1/5 90/1/5 100/1/5
f 102/1/5 90/1/5 101/1/5
f 103/1/5 90/1/5 102/1/5
f 104/1/5 90/1/5 103/1/5
f 105/1/5 90/1/5 104/1/5
f 106/1/5 90/1/5 105/1/5
f 107/1/5 90/1/5 106/1/5
f 108/1/5 90/1/5 107/1/5
f 109/1/5 90/1/5 108/1/5
f 110/1/5 90/1/5 109/1/5
f 111/1/6 112/1/6 113/1/6
f 113/1/6 112/1/6 114/1/6
f 114/1/6 112/1/6 115/1/6
f 115/1/6 112/1/6 116/1/6
f 116/1/6 112/1/6 117/1/6
f 117/1/6 112/1/6 118/1/6
f 118/1/6 112/1/6 119/1/6
f 119/1/6 112/1/6 120/1/6
f 120/1/6 112/1/6 121/1/6
f 121/1/6 112/1/6 122/1/6
f 122/1/6 112/1/6 123/1/6
f 123/1/6 112/1/6 124/1/6
f 124/1/6 112/1/6 125/1/6
f 125/1/6 112/1/6 126/1/6
f 126/1/6 112/1/6 127/1/6
f 127/1/6 112/1/6 128/1/6
f 128/1/6 112/1/6 129/1/6
f 129/1/6 112/1/6 130/1/6
f 130/1/6 112/1/6 131/1/6
f 131/1/6 112/1/6 132/1/6
