# MagicaVoxel @ Ephtracy

# group
o 

# material
mtllib head.mtl
usemtl palette

# normals
vn -1 0 0
vn 1 0 0
vn 0 0 1
vn 0 0 -1
vn 0 -1 0
vn 0 1 0

# texcoords
vt 0.00195313 0.5
vt 0.00585938 0.5
vt 0.0136719 0.5
vt 0.0253906 0.5
vt 0.0449219 0.5

# verts
v -0.5 0.4 0.2
v -0.5 0.4 -0.3
v -0.5 0.7 0.5
v -0.5 0.7 0.2
v -0.5 1 0.5
v -0.5 1 -0.3
v -0.4 0.2 0.4
v -0.4 0.2 -0.3
v -0.4 0.3 0.5
v -0.4 0.3 0.4
v -0.4 0.4 0.2
v -0.4 0.4 -0.3
v -0.4 0.4 -0.4
v -0.4 0.6 0.5
v -0.4 0.6 0.4
v -0.4 0.7 0.5
v -0.4 0.7 0.4
v -0.4 0.7 0.2
v -0.4 1 0.4
v -0.4 1 -0.3
v -0.4 1 -0.4
v -0.4 1.1 0.4
v -0.4 1.1 -0.3
v -0.3 0.1 0.5
v -0.3 0.1 -0.3
v -0.3 0.2 0.4
v -0.3 0.2 -0.3
v -0.3 0.3 0.5
v -0.3 0.3 0.4
v -0.3 1 0.5
v -0.3 1 0.4
v -0.3 1.1 0.5
v -0.3 1.1 0.4
v -0.2 0 0.2
v -0.2 0 -0.2
v -0.2 0.1 0.2
v -0.2 0.1 -0.2
v -0.1 0.5 0.6
v -0.1 0.5 0.5
v -0.1 0.6 0.6
v -0.1 0.6 0.5
v 0.1 0.5 0.6
v 0.1 0.5 0.5
v 0.1 0.6 0.6
v 0.1 0.6 0.5
v 0.2 0 0.2
v 0.2 0 -0.2
v 0.2 0.1 0.2
v 0.2 0.1 -0.2
v 0.3 0.1 0.5
v 0.3 0.1 -0.3
v 0.3 0.2 0.4
v 0.3 0.2 -0.3
v 0.3 0.3 0.5
v 0.3 0.3 0.4
v 0.3 1 0.5
v 0.3 1 0.4
v 0.3 1.1 0.5
v 0.3 1.1 0.4
v 0.4 0.2 0.4
v 0.4 0.2 -0.3
v 0.4 0.3 0.5
v 0.4 0.3 0.4
v 0.4 0.4 0.2
v 0.4 0.4 -0.3
v 0.4 0.4 -0.4
v 0.4 0.6 0.5
v 0.4 0.6 0.4
v 0.4 0.7 0.5
v 0.4 0.7 0.4
v 0.4 0.7 0.2
v 0.4 1 0.4
v 0.4 1 -0.3
v 0.4 1 -0.4
v 0.4 1.1 0.4
v 0.4 1.1 -0.3
v 0.5 0.4 0.2
v 0.5 0.4 -0.3
v 0.5 0.7 0.5
v 0.5 0.7 0.2
v 0.5 1 0.5
v 0.5 1 -0.3
v -0.1 0.5 0.6
v -0.1 0.6 0.6
v 0.1 0.5 0.6
v 0.1 0.6 0.6
v -0.5 0.7 0.5
v -0.5 1 0.5
v -0.4 0.3 0.5
v -0.4 0.6 0.5
v -0.4 0.7 0.5
v -0.4 0.8 0.5
v -0.4 0.9 0.5
v -0.3 0.1 0.5
v -0.3 0.3 0.5
v -0.3 0.6 0.5
v -0.3 0.7 0.5
v -0.3 1 0.5
v -0.3 1.1 0.5
v -0.2 0.6 0.5
v -0.2 0.7 0.5
v -0.1 0.2 0.5
v -0.1 0.3 0.5
v -0.1 0.5 0.5
v -0.1 0.6 0.5
v -0.1 0.8 0.5
v 0.1 0.2 0.5
v 0.1 0.3 0.5
v 0.1 0.5 0.5
v 0.1 0.6 0.5
v 0.1 0.8 0.5
v 0.2 0.6 0.5
v 0.2 0.7 0.5
v 0.3 0.1 0.5
v 0.3 0.3 0.5
v 0.3 0.6 0.5
v 0.3 0.7 0.5
v 0.3 1 0.5
v 0.3 1.1 0.5
v 0.4 0.3 0.5
v 0.4 0.6 0.5
v 0.4 0.7 0.5
v 0.4 0.8 0.5
v 0.4 0.9 0.5
v 0.5 0.7 0.5
v 0.5 1 0.5
v -0.4 0.2 0.4
v -0.4 0.3 0.4
v -0.4 1 0.4
v -0.4 1.1 0.4
v -0.3 0.2 0.4
v -0.3 0.3 0.4
v -0.3 1 0.4
v -0.3 1.1 0.4
v 0.3 0.2 0.4
v 0.3 0.3 0.4
v 0.3 1 0.4
v 0.3 1.1 0.4
v 0.4 0.2 0.4
v 0.4 0.3 0.4
v 0.4 1 0.4
v 0.4 1.1 0.4
v -0.5 0.4 0.2
v -0.5 0.7 0.2
v -0.4 0.4 0.2
v -0.4 0.7 0.2
v -0.2 0 0.2
v -0.2 0.1 0.2
v 0.2 0 0.2
v 0.2 0.1 0.2
v 0.4 0.4 0.2
v 0.4 0.7 0.2
v 0.5 0.4 0.2
v 0.5 0.7 0.2
v -0.2 0 -0.2
v -0.2 0.1 -0.2
v 0.2 0 -0.2
v 0.2 0.1 -0.2
v -0.5 0.4 -0.3
v -0.5 1 -0.3
v -0.4 0.2 -0.3
v -0.4 0.4 -0.3
v -0.4 1 -0.3
v -0.4 1.1 -0.3
v -0.3 0.1 -0.3
v -0.3 0.2 -0.3
v 0.3 0.1 -0.3
v 0.3 0.2 -0.3
v 0.4 0.2 -0.3
v 0.4 0.4 -0.3
v 0.4 1 -0.3
v 0.4 1.1 -0.3
v 0.5 0.4 -0.3
v 0.5 1 -0.3
v -0.4 0.4 -0.4
v -0.4 1 -0.4
v 0.4 0.4 -0.4
v 0.4 1 -0.4
v -0.2 0 0.2
v 0.2 0 0.2
v -0.2 0 -0.2
v 0.2 0 -0.2
v -0.3 0.1 0.5
v 0.3 0.1 0.5
v -0.2 0.1 0.2
v 0.2 0.1 0.2
v -0.2 0.1 -0.2
v 0.2 0.1 -0.2
v -0.3 0.1 -0.3
v 0.3 0.1 -0.3
v -0.4 0.2 0.4
v -0.3 0.2 0.4
v 0.3 0.2 0.4
v 0.4 0.2 0.4
v -0.4 0.2 -0.3
v -0.3 0.2 -0.3
v 0.3 0.2 -0.3
v 0.4 0.2 -0.3
v -0.4 0.3 0.5
v -0.3 0.3 0.5
v 0.3 0.3 0.5
v 0.4 0.3 0.5
v -0.4 0.3 0.4
v -0.3 0.3 0.4
v 0.3 0.3 0.4
v 0.4 0.3 0.4
v -0.5 0.4 0.2
v -0.4 0.4 0.2
v 0.4 0.4 0.2
v 0.5 0.4 0.2
v -0.5 0.4 -0.3
v -0.4 0.4 -0.3
v 0.4 0.4 -0.3
v 0.5 0.4 -0.3
v -0.4 0.4 -0.4
v 0.4 0.4 -0.4
v -0.1 0.5 0.6
v 0.1 0.5 0.6
v -0.1 0.5 0.5
v 0.1 0.5 0.5
v -0.5 0.7 0.5
v -0.4 0.7 0.5
v 0.4 0.7 0.5
v 0.5 0.7 0.5
v -0.4 0.7 0.4
v 0.4 0.7 0.4
v -0.5 0.7 0.2
v -0.4 0.7 0.2
v 0.4 0.7 0.2
v 0.5 0.7 0.2
v -0.1 0.6 0.6
v 0.1 0.6 0.6
v -0.1 0.6 0.5
v 0.1 0.6 0.5
v -0.5 1 0.5
v -0.3 1 0.5
v 0.3 1 0.5
v 0.5 1 0.5
v -0.4 1 0.4
v -0.3 1 0.4
v 0.3 1 0.4
v 0.4 1 0.4
v -0.5 1 -0.3
v -0.4 1 -0.3
v 0.4 1 -0.3
v 0.5 1 -0.3
v -0.4 1 -0.4
v 0.4 1 -0.4
v -0.3 1.1 0.5
v 0.3 1.1 0.5
v -0.4 1.1 0.4
v -0.3 1.1 0.4
v 0.3 1.1 0.4
v 0.4 1.1 0.4
v -0.4 1.1 -0.3
v 0.4 1.1 -0.3

# faces
f 4/5/1 2/5/1 1/5/1
f 5/5/1 4/5/1 3/5/1
f 6/5/1 2/5/1 4/5/1
f 6/5/1 4/5/1 5/5/1
f 10/4/1 8/4/1 7/4/1
f 11/4/1 8/4/1 10/4/1
f 11/4/1 10/4/1 9/4/1
f 12/4/1 8/4/1 11/4/1
f 14/4/1 11/4/1 9/4/1
f 15/4/1 11/4/1 14/4/1
f 16/2/1 15/2/1 14/2/1
f 17/4/1 11/4/1 15/4/1
f 17/2/1 15/2/1 16/2/1
f 18/4/1 11/4/1 17/4/1
f 20/5/1 13/5/1 12/5/1
f 21/5/1 13/5/1 20/5/1
f 22/5/1 20/5/1 19/5/1
f 23/5/1 20/5/1 22/5/1
f 26/4/1 25/4/1 24/4/1
f 27/4/1 25/4/1 26/4/1
f 28/4/1 26/4/1 24/4/1
f 29/4/1 26/4/1 28/4/1
f 32/5/1 31/5/1 30/5/1
f 33/5/1 31/5/1 32/5/1
f 36/4/1 35/4/1 34/4/1
f 37/4/1 35/4/1 36/4/1
f 40/4/1 39/4/1 38/4/1
f 41/4/1 39/4/1 40/4/1
f 42/4/2 43/4/2 44/4/2
f 44/4/2 43/4/2 45/4/2
f 46/4/2 47/4/2 48/4/2
f 48/4/2 47/4/2 49/4/2
f 50/4/2 51/4/2 52/4/2
f 52/4/2 51/4/2 53/4/2
f 50/4/2 52/4/2 54/4/2
f 54/4/2 52/4/2 55/4/2
f 56/5/2 57/5/2 58/5/2
f 58/5/2 57/5/2 59/5/2
f 60/4/2 61/4/2 63/4/2
f 63/4/2 61/4/2 64/4/2
f 62/4/2 63/4/2 64/4/2
f 64/4/2 61/4/2 65/4/2
f 62/4/2 64/4/2 67/4/2
f 67/4/2 64/4/2 68/4/2
f 67/2/2 68/2/2 69/2/2
f 68/4/2 64/4/2 70/4/2
f 69/2/2 68/2/2 70/2/2
f 70/4/2 64/4/2 71/4/2
f 65/5/2 66/5/2 73/5/2
f 73/5/2 66/5/2 74/5/2
f 72/5/2 73/5/2 75/5/2
f 75/5/2 73/5/2 76/5/2
f 77/5/2 78/5/2 80/5/2
f 79/5/2 80/5/2 81/5/2
f 80/5/2 78/5/2 82/5/2
f 81/5/2 80/5/2 82/5/2
f 85/4/3 84/4/3 83/4/3
f 86/4/3 84/4/3 85/4/3
f 91/5/3 88/5/3 87/5/3
f 92/5/3 88/5/3 91/5/3
f 93/5/3 88/5/3 92/5/3
f 95/4/3 90/4/3 89/4/3
f 96/2/3 91/2/3 90/2/3
f 96/2/3 92/2/3 91/2/3
f 96/4/3 90/4/3 95/4/3
f 97/2/3 92/2/3 96/2/3
f 98/5/3 88/5/3 93/5/3
f 100/4/3 95/4/3 94/4/3
f 100/4/3 96/4/3 95/4/3
f 100/1/3 97/1/3 96/1/3
f 101/2/3 92/2/3 97/2/3
f 101/1/3 97/1/3 100/1/3
f 102/4/3 100/4/3 94/4/3
f 103/4/3 100/4/3 102/4/3
f 104/4/3 100/4/3 103/4/3
f 105/2/3 101/2/3 100/2/3
f 105/4/3 100/4/3 104/4/3
f 106/2/3 92/2/3 101/2/3
f 106/2/3 101/2/3 105/2/3
f 106/1/3 93/1/3 92/1/3
f 107/3/3 103/3/3 102/3/3
f 107/4/3 102/4/3 94/4/3
f 108/4/3 104/4/3 103/4/3
f 108/3/3 103/3/3 107/3/3
f 109/4/3 104/4/3 108/4/3
f 110/4/3 106/4/3 105/4/3
f 111/1/3 93/1/3 106/1/3
f 111/4/3 106/4/3 110/4/3
f 112/4/3 110/4/3 109/4/3
f 112/4/3 109/4/3 108/4/3
f 112/2/3 111/2/3 110/2/3
f 112/4/3 108/4/3 107/4/3
f 113/2/3 111/2/3 112/2/3
f 114/4/3 107/4/3 94/4/3
f 114/4/3 112/4/3 107/4/3
f 115/4/3 112/4/3 114/4/3
f 116/1/3 113/1/3 112/1/3
f 116/4/3 112/4/3 115/4/3
f 117/2/3 111/2/3 113/2/3
f 117/1/3 113/1/3 116/1/3
f 118/5/3 99/5/3 98/5/3
f 118/5/3 98/5/3 93/5/3
f 119/5/3 99/5/3 118/5/3
f 120/4/3 116/4/3 115/4/3
f 121/2/3 117/2/3 116/2/3
f 121/4/3 116/4/3 120/4/3
f 122/2/3 111/2/3 117/2/3
f 122/2/3 117/2/3 121/2/3
f 123/1/3 93/1/3 111/1/3
f 123/2/3 111/2/3 122/2/3
f 124/5/3 118/5/3 93/5/3
f 124/1/3 93/1/3 123/1/3
f 125/5/3 124/5/3 123/5/3
f 125/5/3 123/5/3 122/5/3
f 126/5/3 118/5/3 124/5/3
f 126/5/3 124/5/3 125/5/3
f 131/4/3 128/4/3 127/4/3
f 132/4/3 128/4/3 131/4/3
f 133/5/3 130/5/3 129/5/3
f 134/5/3 130/5/3 133/5/3
f 139/4/3 136/4/3 135/4/3
f 140/4/3 136/4/3 139/4/3
f 141/5/3 138/5/3 137/5/3
f 142/5/3 138/5/3 141/5/3
f 145/5/3 144/5/3 143/5/3
f 146/5/3 144/5/3 145/5/3
f 149/4/3 148/4/3 147/4/3
f 150/4/3 148/4/3 149/4/3
f 153/5/3 152/5/3 151/5/3
f 154/5/3 152/5/3 153/5/3
f 155/4/4 156/4/4 157/4/4
f 157/4/4 156/4/4 158/4/4
f 159/5/4 160/5/4 162/5/4
f 162/5/4 160/5/4 163/5/4
f 161/4/4 162/4/4 166/4/4
f 165/4/4 166/4/4 167/4/4
f 166/4/4 162/4/4 168/4/4
f 167/4/4 166/4/4 168/4/4
f 168/4/4 162/4/4 169/4/4
f 169/4/4 162/4/4 170/4/4
f 163/5/4 164/5/4 171/5/4
f 171/5/4 164/5/4 172/5/4
f 170/5/4 171/5/4 173/5/4
f 173/5/4 171/5/4 174/5/4
f 175/5/4 176/5/4 177/5/4
f 177/5/4 176/5/4 178/5/4
f 181/4/5 180/4/5 179/4/5
f 182/4/5 180/4/5 181/4/5
f 185/4/5 184/4/5 183/4/5
f 186/4/5 184/4/5 185/4/5
f 187/4/5 185/4/5 183/4/5
f 188/4/5 184/4/5 186/4/5
f 189/4/5 187/4/5 183/4/5
f 189/4/5 188/4/5 187/4/5
f 190/4/5 184/4/5 188/4/5
f 190/4/5 188/4/5 189/4/5
f 195/4/5 192/4/5 191/4/5
f 196/4/5 192/4/5 195/4/5
f 197/4/5 194/4/5 193/4/5
f 198/4/5 194/4/5 197/4/5
f 203/4/5 200/4/5 199/4/5
f 204/4/5 200/4/5 203/4/5
f 205/4/5 202/4/5 201/4/5
f 206/4/5 202/4/5 205/4/5
f 211/5/5 208/5/5 207/5/5
f 212/5/5 208/5/5 211/5/5
f 213/5/5 210/5/5 209/5/5
f 214/5/5 210/5/5 213/5/5
f 215/5/5 213/5/5 212/5/5
f 216/5/5 213/5/5 215/5/5
f 219/4/5 218/4/5 217/4/5
f 220/4/5 218/4/5 219/4/5
f 225/5/5 222/5/5 221/5/5
f 226/5/5 224/5/5 223/5/5
f 227/5/5 225/5/5 221/5/5
f 228/5/5 225/5/5 227/5/5
f 229/5/5 224/5/5 226/5/5
f 230/5/5 224/5/5 229/5/5
f 231/4/6 232/4/6 233/4/6
f 233/4/6 232/4/6 234/4/6
f 235/5/6 236/5/6 239/5/6
f 239/5/6 236/5/6 240/5/6
f 237/5/6 238/5/6 241/5/6
f 241/5/6 238/5/6 242/5/6
f 235/5/6 239/5/6 243/5/6
f 243/5/6 239/5/6 244/5/6
f 242/5/6 238/5/6 245/5/6
f 245/5/6 238/5/6 246/5/6
f 244/5/6 245/5/6 247/5/6
f 247/5/6 245/5/6 248/5/6
f 249/5/6 250/5/6 252/5/6
f 252/5/6 250/5/6 253/5/6
f 251/5/6 252/5/6 255/5/6
f 253/5/6 254/5/6 255/5/6
f 252/5/6 253/5/6 255/5/6
f 255/5/6 254/5/6 256/5/6
