# MagicaVoxel @ Ephtracy

# group
o 

# material
mtllib flower-red.mtl
usemtl palette

# normals
vn -1 0 0
vn 1 0 0
vn 0 0 1
vn 0 0 -1
vn 0 -1 0
vn 0 1 0

# texcoords
vt 0.0761719 0.5
vt 0.0800781 0.5
vt 0.255859 0.5
vt 0.970703 0.5

# verts
v -0.1 0.6 0.1
v -0.1 0.6 -0.2
v -0.1 0.7 0.1
v -0.1 0.7 -0.2
v 0 0 0
v 0 0 -0.1
v 0 0.1 -0.1
v 0 0.1 -0.2
v 0 0.2 -0.1
v 0 0.2 -0.2
v 0 0.3 0.1
v 0 0.3 0
v 0 0.4 0.1
v 0 0.4 0
v 0 0.6 0
v 0 0.6 -0.1
v 0.1 0 0
v 0.1 0 -0.1
v 0.1 0.1 -0.1
v 0.1 0.1 -0.2
v 0.1 0.2 -0.1
v 0.1 0.2 -0.2
v 0.1 0.3 0.1
v 0.1 0.3 0
v 0.1 0.4 0.1
v 0.1 0.4 0
v 0.1 0.6 0
v 0.1 0.6 -0.1
v 0.2 0.6 0.1
v 0.2 0.6 -0.2
v 0.2 0.7 0.1
v 0.2 0.7 -0.2
v -0.1 0.6 0.1
v -0.1 0.7 0.1
v 0 0.3 0.1
v 0 0.4 0.1
v 0.1 0.3 0.1
v 0.1 0.4 0.1
v 0.2 0.6 0.1
v 0.2 0.7 0.1
v 0 0 0
v 0 0.3 0
v 0 0.4 0
v 0 0.6 0
v 0.1 0 0
v 0.1 0.3 0
v 0.1 0.4 0
v 0.1 0.6 0
v 0 0 -0.1
v 0 0.1 -0.1
v 0 0.2 -0.1
v 0 0.6 -0.1
v 0.1 0 -0.1
v 0.1 0.1 -0.1
v 0.1 0.2 -0.1
v 0.1 0.6 -0.1
v -0.1 0.6 -0.2
v -0.1 0.7 -0.2
v 0 0.1 -0.2
v 0 0.2 -0.2
v 0.1 0.1 -0.2
v 0.1 0.2 -0.2
v 0.2 0.6 -0.2
v 0.2 0.7 -0.2
v 0 0 0
v 0.1 0 0
v 0 0 -0.1
v 0.1 0 -0.1
v 0 0.1 -0.1
v 0.1 0.1 -0.1
v 0 0.1 -0.2
v 0.1 0.1 -0.2
v 0 0.3 0.1
v 0.1 0.3 0.1
v 0 0.3 0
v 0.1 0.3 0
v -0.1 0.6 0.1
v 0.2 0.6 0.1
v 0 0.6 0
v 0.1 0.6 0
v 0 0.6 -0.1
v 0.1 0.6 -0.1
v -0.1 0.6 -0.2
v 0.2 0.6 -0.2
v 0 0.2 -0.1
v 0.1 0.2 -0.1
v 0 0.2 -0.2
v 0.1 0.2 -0.2
v 0 0.4 0.1
v 0.1 0.4 0.1
v 0 0.4 0
v 0.1 0.4 0
v -0.1 0.7 0.1
v 0.2 0.7 0.1
v 0 0.7 0
v 0.1 0.7 0
v 0 0.7 -0.1
v 0.1 0.7 -0.1
v -0.1 0.7 -0.2
v 0.2 0.7 -0.2

# faces
f 3/3/1 2/3/1 1/3/1
f 4/3/1 2/3/1 3/3/1
f 7/1/1 6/1/1 5/1/1
f 9/1/1 7/1/1 5/1/1
f 9/2/1 8/2/1 7/2/1
f 10/2/1 8/2/1 9/2/1
f 12/1/1 9/1/1 5/1/1
f 13/2/1 12/2/1 11/2/1
f 14/1/1 9/1/1 12/1/1
f 14/2/1 12/2/1 13/2/1
f 15/1/1 9/1/1 14/1/1
f 16/1/1 9/1/1 15/1/1
f 17/1/2 18/1/2 19/1/2
f 17/1/2 19/1/2 21/1/2
f 19/2/2 20/2/2 21/2/2
f 21/2/2 20/2/2 22/2/2
f 17/1/2 21/1/2 24/1/2
f 23/2/2 24/2/2 25/2/2
f 24/1/2 21/1/2 26/1/2
f 25/2/2 24/2/2 26/2/2
f 26/1/2 21/1/2 27/1/2
f 27/1/2 21/1/2 28/1/2
f 29/3/2 30/3/2 31/3/2
f 31/3/2 30/3/2 32/3/2
f 37/2/3 36/2/3 35/2/3
f 38/2/3 36/2/3 37/2/3
f 39/3/3 34/3/3 33/3/3
f 40/3/3 34/3/3 39/3/3
f 45/1/3 42/1/3 41/1/3
f 46/1/3 42/1/3 45/1/3
f 47/1/3 44/1/3 43/1/3
f 48/1/3 44/1/3 47/1/3
f 49/1/4 50/1/4 53/1/4
f 53/1/4 50/1/4 54/1/4
f 51/1/4 52/1/4 55/1/4
f 55/1/4 52/1/4 56/1/4
f 59/2/4 60/2/4 61/2/4
f 61/2/4 60/2/4 62/2/4
f 57/3/4 58/3/4 63/3/4
f 63/3/4 58/3/4 64/3/4
f 67/1/5 66/1/5 65/1/5
f 68/1/5 66/1/5 67/1/5
f 71/2/5 70/2/5 69/2/5
f 72/2/5 70/2/5 71/2/5
f 75/2/5 74/2/5 73/2/5
f 76/2/5 74/2/5 75/2/5
f 79/3/5 78/3/5 77/3/5
f 80/3/5 78/3/5 79/3/5
f 81/3/5 79/3/5 77/3/5
f 82/3/5 78/3/5 80/3/5
f 83/3/5 81/3/5 77/3/5
f 83/3/5 82/3/5 81/3/5
f 84/3/5 78/3/5 82/3/5
f 84/3/5 82/3/5 83/3/5
f 85/2/6 86/2/6 87/2/6
f 87/2/6 86/2/6 88/2/6
f 89/2/6 90/2/6 91/2/6
f 91/2/6 90/2/6 92/2/6
f 93/3/6 94/3/6 95/3/6
f 95/3/6 94/3/6 96/3/6
f 93/3/6 95/3/6 97/3/6
f 95/4/6 96/4/6 97/4/6
f 96/3/6 94/3/6 98/3/6
f 97/4/6 96/4/6 98/4/6
f 93/3/6 97/3/6 99/3/6
f 97/3/6 98/3/6 99/3/6
f 98/3/6 94/3/6 100/3/6
f 99/3/6 98/3/6 100/3/6
