# Blender v2.90.1 OBJ File: 'FlowersPreset01.blend'
# www.blender.org
mtllib FlowersPreset02.mtl
o ObjObject
v 2.828472 0.000000 -2.637465
v 2.908215 0.200000 -2.577124
v 2.828472 0.300000 -2.637465
v 2.828472 0.400000 -2.637465
v 2.828472 0.600000 -2.637465
v 2.908215 0.600000 -2.577124
v 2.847873 0.000000 -2.497381
v 2.927616 0.100000 -2.437039
v 2.768131 0.300000 -2.557722
v 2.688387 0.300000 -2.618063
v 2.768131 0.400000 -2.557722
v 2.867275 0.600000 -2.357296
v 2.867275 0.700000 -2.357296
v 2.748729 0.300000 -2.697806
v 2.688387 0.400000 -2.618063
v 2.809070 0.700000 -2.777549
v 2.809070 0.600000 -2.777549
v 2.768130 0.600000 -2.557722
v 2.908215 0.000000 -2.577124
v 2.847873 0.100000 -2.497381
v 2.987958 0.100000 -2.516783
v 2.987958 0.200000 -2.516783
v 2.927616 0.200000 -2.437039
v 2.768131 0.000000 -2.557722
v 2.908215 0.100000 -2.577124
v 2.628046 0.600000 -2.538320
v 2.847873 0.600000 -2.497381
v 3.048299 0.600000 -2.596525
v 2.847873 0.200000 -2.497381
v 2.748729 0.400000 -2.697806
v 2.628046 0.700000 -2.538320
v 2.828472 0.700000 -2.637465
v 2.768130 0.700000 -2.557722
v 2.908215 0.700000 -2.577124
v 2.847873 0.700000 -2.497381
v 3.048299 0.700000 -2.596525
vt 0.255859 0.500000
vt 0.255859 0.500000
vt 0.255859 0.500000
vt 0.255859 0.500000
vt 0.076172 0.500000
vt 0.076172 0.500000
vt 0.076172 0.500000
vt 0.076172 0.500000
vt 0.080078 0.500000
vt 0.080078 0.500000
vt 0.080078 0.500000
vt 0.080078 0.500000
vt 0.076172 0.500000
vt 0.080078 0.500000
vt 0.080078 0.500000
vt 0.080078 0.500000
vt 0.076172 0.500000
vt 0.080078 0.500000
vt 0.076172 0.500000
vt 0.076172 0.500000
vt 0.076172 0.500000
vt 0.076172 0.500000
vt 0.076172 0.500000
vt 0.076172 0.500000
vt 0.080078 0.500000
vt 0.080078 0.500000
vt 0.080078 0.500000
vt 0.080078 0.500000
vt 0.076172 0.500000
vt 0.080078 0.500000
vt 0.080078 0.500000
vt 0.080078 0.500000
vt 0.076172 0.500000
vt 0.080078 0.500000
vt 0.076172 0.500000
vt 0.076172 0.500000
vt 0.255859 0.500000
vt 0.255859 0.500000
vt 0.255859 0.500000
vt 0.255859 0.500000
vt 0.255859 0.500000
vt 0.255859 0.500000
vt 0.255859 0.500000
vt 0.255859 0.500000
vt 0.255859 0.500000
vt 0.255859 0.500000
vt 0.255859 0.500000
vt 0.970703 0.500000
vt 0.970703 0.500000
vt 0.970703 0.500000
vt 0.255859 0.500000
vt 0.970703 0.500000
vn 0.6034 0.0000 -0.7974
vn -0.6034 0.0000 0.7974
vn -0.7974 -0.0000 -0.6034
vn 0.7974 0.0000 0.6034
vn 0.0000 -1.0000 0.0000
vn -0.0000 1.0000 0.0000
usemtl palette
s 1
f 16/1/1 28/2/1 17/3/1
f 36/4/1 28/2/1 16/1/1
f 25/5/1 19/6/1 1/7/1
f 2/8/1 25/5/1 1/7/1
f 2/9/1 21/10/1 25/11/1
f 22/12/1 21/10/1 2/9/1
f 3/13/1 2/8/1 1/7/1
f 30/14/1 3/15/1 14/16/1
f 4/17/1 2/8/1 3/13/1
f 4/18/1 3/15/1 30/14/1
f 5/19/1 2/8/1 4/17/1
f 6/20/1 2/8/1 5/19/1
f 24/21/2 7/22/2 20/23/2
f 24/21/2 20/23/2 29/24/2
f 20/25/2 8/26/2 29/27/2
f 29/27/2 8/26/2 23/28/2
f 24/21/2 29/24/2 9/29/2
f 10/30/2 9/31/2 15/32/2
f 9/29/2 29/24/2 11/33/2
f 15/32/2 9/31/2 11/34/2
f 11/33/2 29/24/2 18/35/2
f 18/35/2 29/24/2 27/36/2
f 26/37/2 12/38/2 31/39/2
f 31/39/2 12/38/2 13/40/2
f 10/30/3 30/14/3 14/16/3
f 15/32/3 30/14/3 10/30/3
f 26/37/3 16/1/3 17/3/3
f 31/39/3 16/1/3 26/37/3
f 24/21/3 3/13/3 1/7/3
f 9/29/3 3/13/3 24/21/3
f 11/33/3 5/19/3 4/17/3
f 18/35/3 5/19/3 11/33/3
f 19/6/4 25/5/4 7/22/4
f 7/22/4 25/5/4 20/23/4
f 2/8/4 6/20/4 29/24/4
f 29/24/4 6/20/4 27/36/4
f 21/10/4 22/12/4 8/26/4
f 8/26/4 22/12/4 23/28/4
f 28/2/4 36/4/4 12/38/4
f 12/38/4 36/4/4 13/40/4
f 19/6/5 24/21/5 1/7/5
f 7/22/5 24/21/5 19/6/5
f 21/10/5 20/25/5 25/11/5
f 8/26/5 20/25/5 21/10/5
f 3/15/5 10/30/5 14/16/5
f 9/31/5 10/30/5 3/15/5
f 5/41/5 26/37/5 17/3/5
f 18/42/5 26/37/5 5/41/5
f 6/43/5 5/41/5 17/3/5
f 27/44/5 26/37/5 18/42/5
f 28/2/5 6/43/5 17/3/5
f 28/2/5 27/44/5 6/43/5
f 12/38/5 26/37/5 27/44/5
f 12/38/5 27/44/5 28/2/5
f 2/9/6 29/27/6 22/12/6
f 22/12/6 29/27/6 23/28/6
f 30/14/6 15/32/6 4/18/6
f 4/18/6 15/32/6 11/34/6
f 16/1/6 31/39/6 32/45/6
f 32/45/6 31/39/6 33/46/6
f 16/1/6 32/45/6 34/47/6
f 32/48/6 33/49/6 34/50/6
f 33/46/6 31/39/6 35/51/6
f 34/50/6 33/49/6 35/52/6
f 16/1/6 34/47/6 36/4/6
f 34/47/6 35/51/6 36/4/6
f 35/51/6 31/39/6 13/40/6
f 36/4/6 35/51/6 13/40/6
o ObjObject.001
v 0.000000 0.000000 3.010869
v 0.010687 0.200000 3.110296
v -0.000000 0.300000 3.010869
v -0.000000 0.400000 3.010869
v -0.000000 0.600000 3.010869
v 0.010687 0.600000 3.110296
v -0.088740 0.000000 3.120984
v -0.078053 0.100000 3.220411
v -0.099427 0.300000 3.021556
v -0.110114 0.300000 2.922129
v -0.099427 0.400000 3.021556
v -0.177481 0.600000 3.231098
v -0.177481 0.700000 3.231098
v -0.010687 0.300000 2.911442
v -0.110114 0.400000 2.922129
v 0.088740 0.700000 2.900755
v 0.088740 0.600000 2.900755
v -0.099427 0.600000 3.021556
v 0.010687 0.000000 3.110296
v -0.088740 0.100000 3.120984
v 0.021374 0.100000 3.209724
v 0.021374 0.200000 3.209724
v -0.078053 0.200000 3.220411
v -0.099427 0.000000 3.021556
v 0.010687 0.100000 3.110296
v -0.209542 0.600000 2.932816
v -0.088740 0.600000 3.120983
v 0.120801 0.600000 3.199037
v -0.088740 0.200000 3.120984
v -0.010687 0.400000 2.911442
v -0.209542 0.700000 2.932816
v -0.000000 0.700000 3.010869
v -0.099427 0.700000 3.021556
v 0.010687 0.700000 3.110296
v -0.088740 0.700000 3.120983
v 0.120801 0.700000 3.199037
vt 0.021484 0.500000
vt 0.021484 0.500000
vt 0.021484 0.500000
vt 0.021484 0.500000
vt 0.076172 0.500000
vt 0.076172 0.500000
vt 0.076172 0.500000
vt 0.076172 0.500000
vt 0.080078 0.500000
vt 0.080078 0.500000
vt 0.080078 0.500000
vt 0.080078 0.500000
vt 0.076172 0.500000
vt 0.080078 0.500000
vt 0.080078 0.500000
vt 0.080078 0.500000
vt 0.076172 0.500000
vt 0.080078 0.500000
vt 0.076172 0.500000
vt 0.076172 0.500000
vt 0.076172 0.500000
vt 0.076172 0.500000
vt 0.076172 0.500000
vt 0.076172 0.500000
vt 0.080078 0.500000
vt 0.080078 0.500000
vt 0.080078 0.500000
vt 0.080078 0.500000
vt 0.076172 0.500000
vt 0.080078 0.500000
vt 0.080078 0.500000
vt 0.080078 0.500000
vt 0.076172 0.500000
vt 0.080078 0.500000
vt 0.076172 0.500000
vt 0.076172 0.500000
vt 0.021484 0.500000
vt 0.021484 0.500000
vt 0.021484 0.500000
vt 0.021484 0.500000
vt 0.021484 0.500000
vt 0.021484 0.500000
vt 0.021484 0.500000
vt 0.021484 0.500000
vt 0.021484 0.500000
vt 0.021484 0.500000
vt 0.021484 0.500000
vt 0.970703 0.500000
vt 0.970703 0.500000
vt 0.970703 0.500000
vt 0.021484 0.500000
vt 0.970703 0.500000
vn 0.9943 0.0000 -0.1069
vn -0.9943 0.0000 0.1069
vn -0.1069 0.0000 -0.9943
vn 0.1069 0.0000 0.9943
vn 0.0000 -1.0000 0.0000
vn -0.0000 1.0000 0.0000
usemtl palette.001
s 1
f 52/53/7 64/54/7 53/55/7
f 72/56/7 64/54/7 52/53/7
f 61/57/7 55/58/7 37/59/7
f 38/60/7 61/57/7 37/59/7
f 38/61/7 57/62/7 61/63/7
f 58/64/7 57/62/7 38/61/7
f 39/65/7 38/60/7 37/59/7
f 66/66/7 39/67/7 50/68/7
f 40/69/7 38/60/7 39/65/7
f 40/70/7 39/67/7 66/66/7
f 41/71/7 38/60/7 40/69/7
f 42/72/7 38/60/7 41/71/7
f 60/73/8 43/74/8 56/75/8
f 60/73/8 56/75/8 65/76/8
f 56/77/8 44/78/8 65/79/8
f 65/79/8 44/78/8 59/80/8
f 60/73/8 65/76/8 45/81/8
f 46/82/8 45/83/8 51/84/8
f 45/81/8 65/76/8 47/85/8
f 51/84/8 45/83/8 47/86/8
f 47/85/8 65/76/8 54/87/8
f 54/87/8 65/76/8 63/88/8
f 62/89/8 48/90/8 67/91/8
f 67/91/8 48/90/8 49/92/8
f 46/82/9 66/66/9 50/68/9
f 51/84/9 66/66/9 46/82/9
f 62/89/9 52/53/9 53/55/9
f 67/91/9 52/53/9 62/89/9
f 60/73/9 39/65/9 37/59/9
f 45/81/9 39/65/9 60/73/9
f 47/85/9 41/71/9 40/69/9
f 54/87/9 41/71/9 47/85/9
f 55/58/10 61/57/10 43/74/10
f 43/74/10 61/57/10 56/75/10
f 38/60/10 42/72/10 65/76/10
f 65/76/10 42/72/10 63/88/10
f 57/62/10 58/64/10 44/78/10
f 44/78/10 58/64/10 59/80/10
f 64/54/10 72/56/10 48/90/10
f 48/90/10 72/56/10 49/92/10
f 55/58/11 60/73/11 37/59/11
f 43/74/11 60/73/11 55/58/11
f 57/62/11 56/77/11 61/63/11
f 44/78/11 56/77/11 57/62/11
f 39/67/11 46/82/11 50/68/11
f 45/83/11 46/82/11 39/67/11
f 41/93/11 62/89/11 53/55/11
f 54/94/11 62/89/11 41/93/11
f 42/95/11 41/93/11 53/55/11
f 63/96/11 62/89/11 54/94/11
f 64/54/11 42/95/11 53/55/11
f 64/54/11 63/96/11 42/95/11
f 48/90/11 62/89/11 63/96/11
f 48/90/11 63/96/11 64/54/11
f 38/61/12 65/79/12 58/64/12
f 58/64/12 65/79/12 59/80/12
f 66/66/12 51/84/12 40/70/12
f 40/70/12 51/84/12 47/86/12
f 52/53/12 67/91/12 68/97/12
f 68/97/12 67/91/12 69/98/12
f 52/53/12 68/97/12 70/99/12
f 68/100/12 69/101/12 70/102/12
f 69/98/12 67/91/12 71/103/12
f 70/102/12 69/101/12 71/104/12
f 52/53/12 70/99/12 72/56/12
f 70/99/12 71/103/12 72/56/12
f 71/103/12 67/91/12 49/92/12
f 72/56/12 71/103/12 49/92/12
o ObjObject.002
v -2.980435 0.000000 -2.732833
v -3.048088 0.200000 -2.659191
v -2.980435 0.300000 -2.732833
v -2.980435 0.400000 -2.732833
v -2.980435 0.600000 -2.732833
v -3.048088 0.600000 -2.659191
v -3.121730 0.000000 -2.726845
v -3.189383 0.100000 -2.653203
v -3.054076 0.300000 -2.800486
v -2.986423 0.300000 -2.874127
v -3.054076 0.400000 -2.800486
v -3.263024 0.600000 -2.720856
v -3.263024 0.700000 -2.720856
v -2.912782 0.300000 -2.806474
v -2.986423 0.400000 -2.874127
v -2.839140 0.700000 -2.738821
v -2.839140 0.600000 -2.738821
v -3.054076 0.600000 -2.800486
v -3.048088 0.000000 -2.659191
v -3.121730 0.100000 -2.726845
v -3.115741 0.100000 -2.585550
v -3.115741 0.200000 -2.585550
v -3.189383 0.200000 -2.653203
v -3.054076 0.000000 -2.800486
v -3.048088 0.100000 -2.659191
v -3.060065 0.600000 -2.941781
v -3.121730 0.600000 -2.726845
v -3.042100 0.600000 -2.517897
v -3.121730 0.200000 -2.726845
v -2.912782 0.400000 -2.806474
v -3.060065 0.700000 -2.941781
v -2.980435 0.700000 -2.732833
v -3.054076 0.700000 -2.800486
v -3.048088 0.700000 -2.659191
v -3.121730 0.700000 -2.726845
v -3.042100 0.700000 -2.517897
vt 0.009766 0.500000
vt 0.009766 0.500000
vt 0.009766 0.500000
vt 0.009766 0.500000
vt 0.076172 0.500000
vt 0.076172 0.500000
vt 0.076172 0.500000
vt 0.076172 0.500000
vt 0.080078 0.500000
vt 0.080078 0.500000
vt 0.080078 0.500000
vt 0.080078 0.500000
vt 0.076172 0.500000
vt 0.080078 0.500000
vt 0.080078 0.500000
vt 0.080078 0.500000
vt 0.076172 0.500000
vt 0.080078 0.500000
vt 0.076172 0.500000
vt 0.076172 0.500000
vt 0.076172 0.500000
vt 0.076172 0.500000
vt 0.076172 0.500000
vt 0.076172 0.500000
vt 0.080078 0.500000
vt 0.080078 0.500000
vt 0.080078 0.500000
vt 0.080078 0.500000
vt 0.076172 0.500000
vt 0.080078 0.500000
vt 0.080078 0.500000
vt 0.080078 0.500000
vt 0.076172 0.500000
vt 0.080078 0.500000
vt 0.076172 0.500000
vt 0.076172 0.500000
vt 0.009766 0.500000
vt 0.009766 0.500000
vt 0.009766 0.500000
vt 0.009766 0.500000
vt 0.009766 0.500000
vt 0.009766 0.500000
vt 0.009766 0.500000
vt 0.009766 0.500000
vt 0.009766 0.500000
vt 0.009766 0.500000
vt 0.009766 0.500000
vt 0.970703 0.500000
vt 0.970703 0.500000
vt 0.970703 0.500000
vt 0.009766 0.500000
vt 0.970703 0.500000
vn 0.7364 -0.0000 0.6765
vn -0.7364 0.0000 -0.6765
vn 0.6765 0.0000 -0.7364
vn -0.6765 0.0000 0.7364
vn -0.0000 -1.0000 0.0000
vn 0.0000 1.0000 -0.0000
usemtl palette.002
s 1
f 88/105/13 100/106/13 89/107/13
f 108/108/13 100/106/13 88/105/13
f 97/109/13 91/110/13 73/111/13
f 74/112/13 97/109/13 73/111/13
f 74/113/13 93/114/13 97/115/13
f 94/116/13 93/114/13 74/113/13
f 75/117/13 74/112/13 73/111/13
f 102/118/13 75/119/13 86/120/13
f 76/121/13 74/112/13 75/117/13
f 76/122/13 75/119/13 102/118/13
f 77/123/13 74/112/13 76/121/13
f 78/124/13 74/112/13 77/123/13
f 96/125/14 79/126/14 92/127/14
f 96/125/14 92/127/14 101/128/14
f 92/129/14 80/130/14 101/131/14
f 101/131/14 80/130/14 95/132/14
f 96/125/14 101/128/14 81/133/14
f 82/134/14 81/135/14 87/136/14
f 81/133/14 101/128/14 83/137/14
f 87/136/14 81/135/14 83/138/14
f 83/137/14 101/128/14 90/139/14
f 90/139/14 101/128/14 99/140/14
f 98/141/14 84/142/14 103/143/14
f 103/143/14 84/142/14 85/144/14
f 82/134/15 102/118/15 86/120/15
f 87/136/15 102/118/15 82/134/15
f 98/141/15 88/105/15 89/107/15
f 103/143/15 88/105/15 98/141/15
f 96/125/15 75/117/15 73/111/15
f 81/133/15 75/117/15 96/125/15
f 83/137/15 77/123/15 76/121/15
f 90/139/15 77/123/15 83/137/15
f 91/110/16 97/109/16 79/126/16
f 79/126/16 97/109/16 92/127/16
f 74/112/16 78/124/16 101/128/16
f 101/128/16 78/124/16 99/140/16
f 93/114/16 94/116/16 80/130/16
f 80/130/16 94/116/16 95/132/16
f 100/106/16 108/108/16 84/142/16
f 84/142/16 108/108/16 85/144/16
f 91/110/17 96/125/17 73/111/17
f 79/126/17 96/125/17 91/110/17
f 93/114/17 92/129/17 97/115/17
f 80/130/17 92/129/17 93/114/17
f 75/119/17 82/134/17 86/120/17
f 81/135/17 82/134/17 75/119/17
f 77/145/17 98/141/17 89/107/17
f 90/146/17 98/141/17 77/145/17
f 78/147/17 77/145/17 89/107/17
f 99/148/17 98/141/17 90/146/17
f 100/106/17 78/147/17 89/107/17
f 100/106/17 99/148/17 78/147/17
f 84/142/17 98/141/17 99/148/17
f 84/142/17 99/148/17 100/106/17
f 74/113/18 101/131/18 94/116/18
f 94/116/18 101/131/18 95/132/18
f 102/118/18 87/136/18 76/122/18
f 76/122/18 87/136/18 83/138/18
f 88/105/18 103/143/18 104/149/18
f 104/149/18 103/143/18 105/150/18
f 88/105/18 104/149/18 106/151/18
f 104/152/18 105/153/18 106/154/18
f 105/150/18 103/143/18 107/155/18
f 106/154/18 105/153/18 107/156/18
f 88/105/18 106/151/18 108/108/18
f 106/151/18 107/155/18 108/108/18
f 107/155/18 103/143/18 85/144/18
f 108/108/18 107/155/18 85/144/18
